solid v2_base_inset
facet normal -7.684340680529596e-17 2.121011773164569e-31 -1.0
  outer loop
    vertex -9.914448613738104 11.305261922200515 0.0
    vertex -9.914448613738104 8.694738077799483 0.0
    vertex -10.0 10.0 0.0
  endloop
endfacet
facet normal -7.684340680529596e-17 2.121011773164569e-31 -1.0
  outer loop
    vertex -9.914448613738104 8.694738077799483 0.0
    vertex -9.914448613738104 11.305261922200515 0.0
    vertex -9.659258262890683 12.588190451025207 0.0
  endloop
endfacet
facet normal -7.684340680529596e-17 2.121011773164569e-31 -1.0
  outer loop
    vertex -9.914448613738104 8.694738077799483 0.0
    vertex -9.659258262890683 12.588190451025207 0.0
    vertex -9.659258262890683 7.411809548974791 0.0
  endloop
endfacet
facet normal -7.684340680529596e-17 2.121011773164569e-31 -1.0
  outer loop
    vertex -9.659258262890683 7.411809548974791 0.0
    vertex -9.659258262890683 12.588190451025207 0.0
    vertex -9.238795325112868 13.8268343236509 0.0
  endloop
endfacet
facet normal -7.684340680529596e-17 2.121011773164569e-31 -1.0
  outer loop
    vertex -9.659258262890683 7.411809548974791 0.0
    vertex -9.238795325112868 13.8268343236509 0.0
    vertex -9.238795325112866 6.173165676349101 0.0
  endloop
endfacet
facet normal -7.684340680529596e-17 2.121011773164569e-31 -1.0
  outer loop
    vertex -9.238795325112866 6.173165676349101 0.0
    vertex -9.238795325112868 13.8268343236509 0.0
    vertex -8.660254037844386 15.0 0.0
  endloop
endfacet
facet normal -7.684340680529596e-17 2.121011773164569e-31 -1.0
  outer loop
    vertex -9.238795325112866 6.173165676349101 0.0
    vertex -8.660254037844386 15.0 0.0
    vertex -8.660254037844387 5.000000000000001 0.0
  endloop
endfacet
facet normal -7.684340680529596e-17 2.121011773164569e-31 -1.0
  outer loop
    vertex -8.660254037844387 5.000000000000001 0.0
    vertex -8.660254037844386 15.0 0.0
    vertex -7.933533402912354 3.9123857099127957 0.0
  endloop
endfacet
facet normal -7.684340680529596e-17 2.121011773164569e-31 -1.0
  outer loop
    vertex -7.933533402912354 3.9123857099127957 0.0
    vertex -8.660254037844386 15.0 0.0
    vertex -7.933533402912348 16.08761429008721 0.0
  endloop
endfacet
facet normal -7.684340680529596e-17 2.121011773164569e-31 -1.0
  outer loop
    vertex -7.933533402912354 3.9123857099127957 0.0
    vertex -7.933533402912348 16.08761429008721 0.0
    vertex -7.071067811865477 2.9289321881345285 0.0
  endloop
endfacet
facet normal -7.684340680529596e-17 2.121011773164569e-31 -1.0
  outer loop
    vertex -7.071067811865477 2.9289321881345285 0.0
    vertex -7.933533402912348 16.08761429008721 0.0
    vertex -7.071067811865473 17.07106781186548 0.0
  endloop
endfacet
facet normal -7.684340680529596e-17 2.121011773164569e-31 -1.0
  outer loop
    vertex -7.071067811865477 2.9289321881345285 0.0
    vertex -7.071067811865473 17.07106781186548 0.0
    vertex -6.0876142900872106 2.0664665970876537 0.0
  endloop
endfacet
facet normal -7.684340680529596e-17 2.121011773164569e-31 -1.0
  outer loop
    vertex -6.0876142900872106 2.0664665970876537 0.0
    vertex -7.071067811865473 17.07106781186548 0.0
    vertex -6.087614290087204 17.933533402912353 0.0
  endloop
endfacet
facet normal -7.684340680529596e-17 2.121011773164569e-31 -1.0
  outer loop
    vertex -6.0876142900872106 2.0664665970876537 0.0
    vertex -6.087614290087204 17.933533402912353 0.0
    vertex -5.000000000000005 1.3397459621556183 0.0
  endloop
endfacet
facet normal -7.684340680529596e-17 2.121011773164569e-31 -1.0
  outer loop
    vertex -5.000000000000005 1.3397459621556183 0.0
    vertex -6.087614290087204 17.933533402912353 0.0
    vertex -4.999999999999998 18.660254037844386 0.0
  endloop
endfacet
facet normal -7.684340680529596e-17 2.121011773164569e-31 -1.0
  outer loop
    vertex -5.000000000000005 1.3397459621556183 0.0
    vertex -4.999999999999998 18.660254037844386 0.0
    vertex -3.8268343236509055 0.7612046748871365 0.0
  endloop
endfacet
facet normal -7.684340680529596e-17 2.121011773164569e-31 -1.0
  outer loop
    vertex -3.8268343236509055 0.7612046748871365 0.0
    vertex -4.999999999999998 18.660254037844386 0.0
    vertex -3.8268343236508975 19.238795325112864 0.0
  endloop
endfacet
facet normal -7.684340680529596e-17 2.121011773164569e-31 -1.0
  outer loop
    vertex -3.8268343236509055 0.7612046748871365 0.0
    vertex -3.8268343236508975 19.238795325112864 0.0
    vertex -2.5881904510252163 0.3407417371093203 0.0
  endloop
endfacet
facet normal -7.684340680529596e-17 2.121011773164569e-31 -1.0
  outer loop
    vertex -2.5881904510252163 0.3407417371093203 0.0
    vertex -3.8268343236508975 19.238795325112864 0.0
    vertex -2.588190451025207 19.65925826289068 0.0
  endloop
endfacet
facet normal -7.684340680529596e-17 2.121011773164569e-31 -1.0
  outer loop
    vertex -2.5881904510252163 0.3407417371093203 0.0
    vertex -2.588190451025207 19.65925826289068 0.0
    vertex -1.305261922200527 0.08555138626189882 0.0
  endloop
endfacet
facet normal -7.684340680529596e-17 2.121011773164569e-31 -1.0
  outer loop
    vertex -1.305261922200527 0.08555138626189882 0.0
    vertex -2.588190451025207 19.65925826289068 0.0
    vertex -1.3052619222005155 19.914448613738102 0.0
  endloop
endfacet
facet normal -7.684340680529596e-17 2.121011773164569e-31 -1.0
  outer loop
    vertex -1.305261922200527 0.08555138626189882 0.0
    vertex -1.3052619222005155 19.914448613738102 0.0
    vertex 0.0 0.0 0.0
  endloop
endfacet
facet normal -7.684340680529596e-17 2.121011773164569e-31 -1.0
  outer loop
    vertex 0.0 0.0 0.0
    vertex -1.3052619222005155 19.914448613738102 0.0
    vertex 0.0 20.0 0.0
  endloop
endfacet
facet normal -7.684340680529596e-17 2.121011773164569e-31 -1.0
  outer loop
    vertex 0.0 0.0 0.0
    vertex 0.0 20.0 0.0
    vertex 80.0 20.0 0.0
  endloop
endfacet
facet normal -7.684340680529596e-17 2.121011773164569e-31 -1.0
  outer loop
    vertex 0.0 0.0 0.0
    vertex 80.0 20.0 0.0
    vertex 80.0 0.0 0.0
  endloop
endfacet
facet normal -7.684340680529596e-17 2.121011773164569e-31 -1.0
  outer loop
    vertex 80.0 0.0 0.0
    vertex 80.0 20.0 0.0
    vertex 81.30526192220051 19.914448613738102 -1.4670022287335197e-15
  endloop
endfacet
facet normal -7.684340680529596e-17 2.121011773164569e-31 -1.0
  outer loop
    vertex 80.0 0.0 0.0
    vertex 81.30526192220051 19.914448613738102 -1.4670022287335197e-15
    vertex 81.30526192220053 0.08555138626189882 -1.4670022287335325e-15
  endloop
endfacet
facet normal -7.684340680529596e-17 2.121011773164569e-31 -1.0
  outer loop
    vertex 81.30526192220053 0.08555138626189882 -1.4670022287335325e-15
    vertex 81.30526192220051 19.914448613738102 -1.4670022287335197e-15
    vertex 82.5881904510252 19.65925826289068 -2.908903642603551e-15
  endloop
endfacet
facet normal -7.684340680529596e-17 2.121011773164569e-31 -1.0
  outer loop
    vertex 81.30526192220053 0.08555138626189882 -1.4670022287335325e-15
    vertex 82.5881904510252 19.65925826289068 -2.908903642603551e-15
    vertex 82.58819045102521 0.3407417371093203 -2.908903642603561e-15
  endloop
endfacet
facet normal -7.684340680529596e-17 2.121011773164569e-31 -1.0
  outer loop
    vertex 82.58819045102521 0.3407417371093203 -2.908903642603561e-15
    vertex 82.5881904510252 19.65925826289068 -2.908903642603551e-15
    vertex 83.8268343236509 19.238795325112864 -4.301032908648181e-15
  endloop
endfacet
facet normal -7.684340680529596e-17 2.121011773164569e-31 -1.0
  outer loop
    vertex 82.58819045102521 0.3407417371093203 -2.908903642603561e-15
    vertex 83.8268343236509 19.238795325112864 -4.301032908648181e-15
    vertex 83.8268343236509 0.7612046748871365 -4.301032908648189e-15
  endloop
endfacet
facet normal -7.684340680529596e-17 2.121011773164569e-31 -1.0
  outer loop
    vertex 83.8268343236509 0.7612046748871365 -4.301032908648189e-15
    vertex 83.8268343236509 19.238795325112864 -4.301032908648181e-15
    vertex 85.0 18.660254037844386 -5.619570309154231e-15
  endloop
endfacet
facet normal -7.684340680529596e-17 2.121011773164569e-31 -1.0
  outer loop
    vertex 83.8268343236509 0.7612046748871365 -4.301032908648189e-15
    vertex 85.0 18.660254037844386 -5.619570309154231e-15
    vertex 85.0 1.3397459621556167 -5.619570309154238e-15
  endloop
endfacet
facet normal -7.684340680529596e-17 2.121011773164569e-31 -1.0
  outer loop
    vertex 85.0 1.3397459621556167 -5.619570309154238e-15
    vertex 85.0 18.660254037844386 -5.619570309154231e-15
    vertex 86.0876142900872 17.933533402912353 -6.8419553036314144e-15
  endloop
endfacet
facet normal -7.684340680529596e-17 2.121011773164569e-31 -1.0
  outer loop
    vertex 85.0 1.3397459621556167 -5.619570309154238e-15
    vertex 86.0876142900872 17.933533402912353 -6.8419553036314144e-15
    vertex 86.0876142900872 2.066466597087652 -6.841955303631421e-15
  endloop
endfacet
facet normal -7.684340680529596e-17 2.121011773164569e-31 -1.0
  outer loop
    vertex 86.0876142900872 2.066466597087652 -6.841955303631421e-15
    vertex 86.0876142900872 17.933533402912353 -6.8419553036314144e-15
    vertex 87.07106781186548 17.071067811865476 -7.94727254591508e-15
  endloop
endfacet
facet normal -7.684340680529596e-17 2.121011773164569e-31 -1.0
  outer loop
    vertex 86.0876142900872 2.066466597087652 -6.841955303631421e-15
    vertex 87.07106781186548 17.071067811865476 -7.94727254591508e-15
    vertex 87.07106781186548 2.9289321881345267 -7.947272545915083e-15
  endloop
endfacet
facet normal -7.684340680529596e-17 2.121011773164569e-31 -1.0
  outer loop
    vertex 87.07106781186548 2.9289321881345267 -7.947272545915083e-15
    vertex 87.07106781186548 17.071067811865476 -7.94727254591508e-15
    vertex 87.93353340291235 16.08761429008721 -8.916609751537914e-15
  endloop
endfacet
facet normal -7.684340680529596e-17 2.121011773164569e-31 -1.0
  outer loop
    vertex 87.07106781186548 2.9289321881345267 -7.947272545915083e-15
    vertex 87.93353340291235 16.08761429008721 -8.916609751537914e-15
    vertex 87.93353340291235 3.9123857099127943 -8.91660975153792e-15
  endloop
endfacet
facet normal -7.684340680529596e-17 2.121011773164569e-31 -1.0
  outer loop
    vertex 87.93353340291235 3.9123857099127943 -8.91660975153792e-15
    vertex 87.93353340291235 16.08761429008721 -8.916609751537914e-15
    vertex 88.66025403784438 15.0 -9.733381292160671e-15
  endloop
endfacet
facet normal -7.684340680529596e-17 2.121011773164569e-31 -1.0
  outer loop
    vertex 87.93353340291235 3.9123857099127943 -8.91660975153792e-15
    vertex 88.66025403784438 15.0 -9.733381292160671e-15
    vertex 88.66025403784438 4.999999999999999 -9.733381292160674e-15
  endloop
endfacet
facet normal -7.684340680529596e-17 2.121011773164569e-31 -1.0
  outer loop
    vertex 88.66025403784438 4.999999999999999 -9.733381292160674e-15
    vertex 88.66025403784438 15.0 -9.733381292160671e-15
    vertex 89.23879532511286 13.826834323650896 -1.0383611980271438e-14
  endloop
endfacet
facet normal -7.684340680529596e-17 2.121011773164569e-31 -1.0
  outer loop
    vertex 88.66025403784438 4.999999999999999 -9.733381292160674e-15
    vertex 89.23879532511286 13.826834323650896 -1.0383611980271438e-14
    vertex 89.23879532511286 6.173165676349099 -1.0383611980271436e-14
  endloop
endfacet
facet normal -7.684340680529596e-17 2.121011773164569e-31 -1.0
  outer loop
    vertex 89.23879532511286 6.173165676349099 -1.0383611980271436e-14
    vertex 89.23879532511286 13.826834323650896 -1.0383611980271438e-14
    vertex 89.65925826289069 12.588190451025207 -1.0856176188518632e-14
  endloop
endfacet
facet normal -7.684340680529596e-17 2.121011773164569e-31 -1.0
  outer loop
    vertex 89.23879532511286 6.173165676349099 -1.0383611980271436e-14
    vertex 89.65925826289069 12.588190451025207 -1.0856176188518632e-14
    vertex 89.65925826289069 7.411809548974789 -1.0856176188518632e-14
  endloop
endfacet
facet normal -7.684340680529596e-17 2.121011773164569e-31 -1.0
  outer loop
    vertex 89.65925826289069 7.411809548974789 -1.0856176188518632e-14
    vertex 89.65925826289069 12.588190451025207 -1.0856176188518632e-14
    vertex 89.9144486137381 11.305261922200515 -1.1142988212279597e-14
  endloop
endfacet
facet normal -7.684340680529596e-17 2.121011773164569e-31 -1.0
  outer loop
    vertex 89.65925826289069 7.411809548974789 -1.0856176188518632e-14
    vertex 89.9144486137381 11.305261922200515 -1.1142988212279597e-14
    vertex 89.9144486137381 8.694738077799482 -1.1142988212279597e-14
  endloop
endfacet
facet normal -7.684340680529596e-17 2.121011773164569e-31 -1.0
  outer loop
    vertex 89.9144486137381 8.694738077799482 -1.1142988212279597e-14
    vertex 89.9144486137381 11.305261922200515 -1.1142988212279597e-14
    vertex 90.0 9.999999999999998 -1.1239140618308463e-14
  endloop
endfacet
facet normal 7.684340680529596e-17 -2.121011773164569e-31 1.0
  outer loop
    vertex -9.914448613738104 8.694738077799483 3.0
    vertex -9.914448613738104 11.305261922200515 3.0
    vertex -10.0 10.0 3.0
  endloop
endfacet
facet normal 7.684340680529596e-17 -2.121011773164569e-31 1.0
  outer loop
    vertex -9.914448613738104 11.305261922200515 3.0
    vertex -9.914448613738104 8.694738077799483 3.0
    vertex -9.659258262890683 7.411809548974791 3.0
  endloop
endfacet
facet normal 7.684340680529596e-17 -2.121011773164569e-31 1.0
  outer loop
    vertex -9.914448613738104 11.305261922200515 3.0
    vertex -9.659258262890683 7.411809548974791 3.0
    vertex -9.659258262890683 12.588190451025207 3.0
  endloop
endfacet
facet normal 7.684340680529596e-17 -2.121011773164569e-31 1.0
  outer loop
    vertex -9.659258262890683 12.588190451025207 3.0
    vertex -9.659258262890683 7.411809548974791 3.0
    vertex -9.238795325112866 6.173165676349101 3.0
  endloop
endfacet
facet normal 7.684340680529596e-17 -2.121011773164569e-31 1.0
  outer loop
    vertex -9.659258262890683 12.588190451025207 3.0
    vertex -9.238795325112866 6.173165676349101 3.0
    vertex -9.238795325112868 13.8268343236509 3.0
  endloop
endfacet
facet normal 7.684340680529596e-17 -2.121011773164569e-31 1.0
  outer loop
    vertex -9.238795325112868 13.8268343236509 3.0
    vertex -9.238795325112866 6.173165676349101 3.0
    vertex -8.660254037844386 15.0 3.0
  endloop
endfacet
facet normal 7.684340680529596e-17 -2.121011773164569e-31 1.0
  outer loop
    vertex -8.660254037844386 15.0 3.0
    vertex -9.238795325112866 6.173165676349101 3.0
    vertex -8.660254037844387 5.000000000000001 3.0
  endloop
endfacet
facet normal 7.684340680529596e-17 -2.121011773164569e-31 1.0
  outer loop
    vertex -8.660254037844386 15.0 3.0
    vertex -8.660254037844387 5.000000000000001 3.0
    vertex -7.933533402912354 3.9123857099127957 3.0
  endloop
endfacet
facet normal 7.684340680529596e-17 -2.121011773164569e-31 1.0
  outer loop
    vertex -8.660254037844386 15.0 3.0
    vertex -7.933533402912354 3.9123857099127957 3.0
    vertex -7.933533402912348 16.08761429008721 3.0
  endloop
endfacet
facet normal 7.684340680529596e-17 -2.121011773164569e-31 1.0
  outer loop
    vertex -7.933533402912348 16.08761429008721 3.0
    vertex -7.933533402912354 3.9123857099127957 3.0
    vertex -7.071067811865477 2.9289321881345285 3.0
  endloop
endfacet
facet normal 7.684340680529596e-17 -2.121011773164569e-31 1.0
  outer loop
    vertex -7.933533402912348 16.08761429008721 3.0
    vertex -7.071067811865477 2.9289321881345285 3.0
    vertex -7.071067811865473 17.07106781186548 3.0
  endloop
endfacet
facet normal 7.684340680529596e-17 -2.121011773164569e-31 1.0
  outer loop
    vertex -7.071067811865473 17.07106781186548 3.0
    vertex -7.071067811865477 2.9289321881345285 3.0
    vertex -6.0876142900872106 2.0664665970876537 3.0
  endloop
endfacet
facet normal 7.684340680529596e-17 -2.121011773164569e-31 1.0
  outer loop
    vertex -7.071067811865473 17.07106781186548 3.0
    vertex -6.0876142900872106 2.0664665970876537 3.0
    vertex -6.087614290087204 17.933533402912353 3.0
  endloop
endfacet
facet normal 7.684340680529596e-17 -2.121011773164569e-31 1.0
  outer loop
    vertex -6.087614290087204 17.933533402912353 3.0
    vertex -6.0876142900872106 2.0664665970876537 3.0
    vertex -5.000000000000005 1.3397459621556183 3.0
  endloop
endfacet
facet normal 7.684340680529596e-17 -2.121011773164569e-31 1.0
  outer loop
    vertex -6.087614290087204 17.933533402912353 3.0
    vertex -5.000000000000005 1.3397459621556183 3.0
    vertex -4.999999999999998 18.660254037844386 3.0
  endloop
endfacet
facet normal 7.684340680529596e-17 -2.121011773164569e-31 1.0
  outer loop
    vertex -4.999999999999998 18.660254037844386 3.0
    vertex -5.000000000000005 1.3397459621556183 3.0
    vertex -3.8268343236509055 0.7612046748871365 3.0
  endloop
endfacet
facet normal 7.684340680529596e-17 -2.121011773164569e-31 1.0
  outer loop
    vertex -4.999999999999998 18.660254037844386 3.0
    vertex -3.8268343236509055 0.7612046748871365 3.0
    vertex -3.8268343236508975 19.238795325112864 3.0
  endloop
endfacet
facet normal 7.684340680529596e-17 -2.121011773164569e-31 1.0
  outer loop
    vertex -3.8268343236508975 19.238795325112864 3.0
    vertex -3.8268343236509055 0.7612046748871365 3.0
    vertex -2.588190451025216 0.3407417371093203 3.0
  endloop
endfacet
facet normal 7.684340680529596e-17 -2.121011773164569e-31 1.0
  outer loop
    vertex -3.8268343236508975 19.238795325112864 3.0
    vertex -2.588190451025216 0.3407417371093203 3.0
    vertex -2.5881904510252065 19.65925826289068 3.0
  endloop
endfacet
facet normal 7.684340680529596e-17 -2.121011773164569e-31 1.0
  outer loop
    vertex -2.5881904510252065 19.65925826289068 3.0
    vertex -2.588190451025216 0.3407417371093203 3.0
    vertex -1.3052619222005268 0.08555138626189882 3.0
  endloop
endfacet
facet normal 7.684340680529596e-17 -2.121011773164569e-31 1.0
  outer loop
    vertex -2.5881904510252065 19.65925826289068 3.0
    vertex -1.3052619222005268 0.08555138626189882 3.0
    vertex -1.3052619222005155 19.914448613738102 3.0
  endloop
endfacet
facet normal 7.684340680529596e-17 -2.121011773164569e-31 1.0
  outer loop
    vertex -1.3052619222005155 19.914448613738102 3.0
    vertex -1.3052619222005268 0.08555138626189882 3.0
    vertex 2.305302204158879e-16 -6.363035319493708e-31 3.0
  endloop
endfacet
facet normal 7.684340680529596e-17 -2.121011773164569e-31 1.0
  outer loop
    vertex -1.3052619222005155 19.914448613738102 3.0
    vertex 2.305302204158879e-16 -6.363035319493708e-31 3.0
    vertex 2.305302204158879e-16 20.0 3.0
  endloop
endfacet
facet normal 7.684340680529596e-17 -2.121011773164569e-31 1.0
  outer loop
    vertex 2.305302204158879e-16 20.0 3.0
    vertex 2.305302204158879e-16 -6.363035319493708e-31 3.0
    vertex 80.0 -6.363035319493708e-31 3.0
  endloop
endfacet
facet normal 7.684340680529596e-17 -2.121011773164569e-31 1.0
  outer loop
    vertex 2.305302204158879e-16 20.0 3.0
    vertex 80.0 -6.363035319493708e-31 3.0
    vertex 80.0 20.0 3.0
  endloop
endfacet
facet normal 7.684340680529596e-17 -2.121011773164569e-31 1.0
  outer loop
    vertex 80.0 20.0 3.0
    vertex 80.0 -6.363035319493708e-31 3.0
    vertex 81.30526192220053 0.08555138626189882 2.9999999999999987
  endloop
endfacet
facet normal 7.684340680529596e-17 -2.121011773164569e-31 1.0
  outer loop
    vertex 80.0 20.0 3.0
    vertex 81.30526192220053 0.08555138626189882 2.9999999999999987
    vertex 81.30526192220051 19.914448613738102 2.9999999999999987
  endloop
endfacet
facet normal 7.684340680529596e-17 -2.121011773164569e-31 1.0
  outer loop
    vertex 81.30526192220051 19.914448613738102 2.9999999999999987
    vertex 81.30526192220053 0.08555138626189882 2.9999999999999987
    vertex 82.5881904510252 19.65925826289068 2.9999999999999973
  endloop
endfacet
facet normal 7.684340680529596e-17 -2.121011773164569e-31 1.0
  outer loop
    vertex 82.5881904510252 19.65925826289068 2.9999999999999973
    vertex 81.30526192220053 0.08555138626189882 2.9999999999999987
    vertex 82.58819045102521 0.3407417371093203 2.9999999999999973
  endloop
endfacet
facet normal 7.684340680529596e-17 -2.121011773164569e-31 1.0
  outer loop
    vertex 82.5881904510252 19.65925826289068 2.9999999999999973
    vertex 82.58819045102521 0.3407417371093203 2.9999999999999973
    vertex 83.8268343236509 19.238795325112864 2.999999999999996
  endloop
endfacet
facet normal 7.684340680529596e-17 -2.121011773164569e-31 1.0
  outer loop
    vertex 83.8268343236509 19.238795325112864 2.999999999999996
    vertex 82.58819045102521 0.3407417371093203 2.9999999999999973
    vertex 83.8268343236509 0.7612046748871365 2.999999999999996
  endloop
endfacet
facet normal 7.684340680529596e-17 -2.121011773164569e-31 1.0
  outer loop
    vertex 83.8268343236509 19.238795325112864 2.999999999999996
    vertex 83.8268343236509 0.7612046748871365 2.999999999999996
    vertex 85.0 1.3397459621556167 2.9999999999999947
  endloop
endfacet
facet normal 7.684340680529596e-17 -2.121011773164569e-31 1.0
  outer loop
    vertex 83.8268343236509 19.238795325112864 2.999999999999996
    vertex 85.0 1.3397459621556167 2.9999999999999947
    vertex 85.0 18.660254037844386 2.9999999999999947
  endloop
endfacet
facet normal 7.684340680529596e-17 -2.121011773164569e-31 1.0
  outer loop
    vertex 85.0 18.660254037844386 2.9999999999999947
    vertex 85.0 1.3397459621556167 2.9999999999999947
    vertex 86.0876142900872 2.066466597087652 2.9999999999999933
  endloop
endfacet
facet normal 7.684340680529596e-17 -2.121011773164569e-31 1.0
  outer loop
    vertex 85.0 18.660254037844386 2.9999999999999947
    vertex 86.0876142900872 2.066466597087652 2.9999999999999933
    vertex 86.0876142900872 17.933533402912353 2.9999999999999933
  endloop
endfacet
facet normal 7.684340680529596e-17 -2.121011773164569e-31 1.0
  outer loop
    vertex 86.0876142900872 17.933533402912353 2.9999999999999933
    vertex 86.0876142900872 2.066466597087652 2.9999999999999933
    vertex 87.07106781186548 2.9289321881345267 2.999999999999992
  endloop
endfacet
facet normal 7.684340680529596e-17 -2.121011773164569e-31 1.0
  outer loop
    vertex 86.0876142900872 17.933533402912353 2.9999999999999933
    vertex 87.07106781186548 2.9289321881345267 2.999999999999992
    vertex 87.07106781186548 17.071067811865476 2.999999999999992
  endloop
endfacet
facet normal 7.684340680529596e-17 -2.121011773164569e-31 1.0
  outer loop
    vertex 87.07106781186548 17.071067811865476 2.999999999999992
    vertex 87.07106781186548 2.9289321881345267 2.999999999999992
    vertex 87.93353340291235 3.9123857099127943 2.999999999999991
  endloop
endfacet
facet normal 7.684340680529596e-17 -2.121011773164569e-31 1.0
  outer loop
    vertex 87.07106781186548 17.071067811865476 2.999999999999992
    vertex 87.93353340291235 3.9123857099127943 2.999999999999991
    vertex 87.93353340291235 16.08761429008721 2.999999999999991
  endloop
endfacet
facet normal 7.684340680529596e-17 -2.121011773164569e-31 1.0
  outer loop
    vertex 87.93353340291235 16.08761429008721 2.999999999999991
    vertex 87.93353340291235 3.9123857099127943 2.999999999999991
    vertex 88.66025403784438 4.999999999999999 2.9999999999999902
  endloop
endfacet
facet normal 7.684340680529596e-17 -2.121011773164569e-31 1.0
  outer loop
    vertex 87.93353340291235 16.08761429008721 2.999999999999991
    vertex 88.66025403784438 4.999999999999999 2.9999999999999902
    vertex 88.66025403784438 15.0 2.9999999999999902
  endloop
endfacet
facet normal 7.684340680529596e-17 -2.121011773164569e-31 1.0
  outer loop
    vertex 88.66025403784438 15.0 2.9999999999999902
    vertex 88.66025403784438 4.999999999999999 2.9999999999999902
    vertex 89.23879532511286 6.173165676349099 2.99999999999999
  endloop
endfacet
facet normal 7.684340680529596e-17 -2.121011773164569e-31 1.0
  outer loop
    vertex 88.66025403784438 15.0 2.9999999999999902
    vertex 89.23879532511286 6.173165676349099 2.99999999999999
    vertex 89.23879532511286 13.826834323650896 2.99999999999999
  endloop
endfacet
facet normal 7.684340680529596e-17 -2.121011773164569e-31 1.0
  outer loop
    vertex 89.23879532511286 13.826834323650896 2.99999999999999
    vertex 89.23879532511286 6.173165676349099 2.99999999999999
    vertex 89.65925826289069 7.411809548974789 2.9999999999999893
  endloop
endfacet
facet normal 7.684340680529596e-17 -2.121011773164569e-31 1.0
  outer loop
    vertex 89.23879532511286 13.826834323650896 2.99999999999999
    vertex 89.65925826289069 7.411809548974789 2.9999999999999893
    vertex 89.65925826289069 12.588190451025207 2.9999999999999893
  endloop
endfacet
facet normal 7.684340680529596e-17 -2.121011773164569e-31 1.0
  outer loop
    vertex 89.65925826289069 12.588190451025207 2.9999999999999893
    vertex 89.65925826289069 7.411809548974789 2.9999999999999893
    vertex 89.9144486137381 8.694738077799482 2.999999999999989
  endloop
endfacet
facet normal 7.684340680529596e-17 -2.121011773164569e-31 1.0
  outer loop
    vertex 89.65925826289069 12.588190451025207 2.9999999999999893
    vertex 89.9144486137381 8.694738077799482 2.999999999999989
    vertex 89.9144486137381 11.305261922200515 2.999999999999989
  endloop
endfacet
facet normal 7.684340680529596e-17 -2.121011773164569e-31 1.0
  outer loop
    vertex 89.9144486137381 11.305261922200515 2.999999999999989
    vertex 89.9144486137381 8.694738077799482 2.999999999999989
    vertex 90.0 9.999999999999998 2.999999999999989
  endloop
endfacet
facet normal -0.0 -1.0 -2.1210117731645696e-31
  outer loop
    vertex 80.0 -6.363035319493708e-31 3.0
    vertex 0.0 0.0 0.0
    vertex 80.0 0.0 0.0
  endloop
endfacet
facet normal -0.0 -1.0 -2.1210117731645696e-31
  outer loop
    vertex 0.0 0.0 0.0
    vertex 80.0 -6.363035319493708e-31 3.0
    vertex 2.305302204158879e-16 -6.363035319493708e-31 3.0
  endloop
endfacet
facet normal -0.06540312923014474 -0.9978589232386035 5.025799265771145e-18
  outer loop
    vertex 2.305302204158879e-16 -6.363035319493708e-31 3.0
    vertex -1.305261922200527 0.08555138626189882 0.0
    vertex 0.0 0.0 0.0
  endloop
endfacet
facet normal -0.06540312923014474 -0.9978589232386035 5.025799265771145e-18
  outer loop
    vertex -1.305261922200527 0.08555138626189882 0.0
    vertex 2.305302204158879e-16 -6.363035319493708e-31 3.0
    vertex -1.3052619222005268 0.08555138626189882 3.0
  endloop
endfacet
facet normal -0.19509032201612883 -0.9807852804032304 1.4991404978461368e-17
  outer loop
    vertex -1.3052619222005268 0.08555138626189882 3.0
    vertex -2.5881904510252163 0.3407417371093203 0.0
    vertex -1.305261922200527 0.08555138626189882 0.0
  endloop
endfacet
facet normal -0.19509032201612883 -0.9807852804032304 1.4991404978461368e-17
  outer loop
    vertex -2.5881904510252163 0.3407417371093203 0.0
    vertex -1.3052619222005268 0.08555138626189882 3.0
    vertex -2.588190451025216 0.3407417371093203 3.0
  endloop
endfacet
facet normal -0.3214394653031625 -0.9469301294951055 2.4700503595567528e-17
  outer loop
    vertex -2.588190451025216 0.3407417371093203 3.0
    vertex -3.8268343236509055 0.7612046748871365 0.0
    vertex -2.5881904510252163 0.3407417371093203 0.0
  endloop
endfacet
facet normal -0.3214394653031625 -0.9469301294951055 2.4700503595567528e-17
  outer loop
    vertex -3.8268343236509055 0.7612046748871365 0.0
    vertex -2.588190451025216 0.3407417371093203 3.0
    vertex -3.8268343236509055 0.7612046748871365 3.0
  endloop
endfacet
facet normal -0.44228869021900225 -0.8968727415326878 3.3986969747880124e-17
  outer loop
    vertex -3.8268343236509055 0.7612046748871365 3.0
    vertex -5.000000000000005 1.3397459621556183 0.0
    vertex -3.8268343236509055 0.7612046748871365 0.0
  endloop
endfacet
facet normal -0.44228869021900225 -0.8968727415326878 3.3986969747880124e-17
  outer loop
    vertex -5.000000000000005 1.3397459621556183 0.0
    vertex -3.8268343236509055 0.7612046748871365 3.0
    vertex -5.000000000000005 1.3397459621556183 3.0
  endloop
endfacet
facet normal -0.5555702330196031 -0.8314696123025448 4.269190942483825e-17
  outer loop
    vertex -5.000000000000005 1.3397459621556183 3.0
    vertex -6.0876142900872106 2.0664665970876537 0.0
    vertex -5.000000000000005 1.3397459621556183 0.0
  endloop
endfacet
facet normal -0.5555702330196031 -0.8314696123025448 4.269190942483825e-17
  outer loop
    vertex -6.0876142900872106 2.0664665970876537 0.0
    vertex -5.000000000000005 1.3397459621556183 3.0
    vertex -6.0876142900872106 2.0664665970876537 3.0
  endloop
endfacet
facet normal -0.6593458151000691 -0.7518398074789775 5.066637869510391e-17
  outer loop
    vertex -6.0876142900872106 2.0664665970876537 3.0
    vertex -7.071067811865477 2.9289321881345285 0.0
    vertex -6.0876142900872106 2.0664665970876537 0.0
  endloop
endfacet
facet normal -0.6593458151000691 -0.7518398074789775 5.066637869510391e-17
  outer loop
    vertex -7.071067811865477 2.9289321881345285 0.0
    vertex -6.0876142900872106 2.0664665970876537 3.0
    vertex -7.071067811865477 2.9289321881345285 3.0
  endloop
endfacet
facet normal -0.7518398074789772 -0.6593458151000694 5.77739321785223e-17
  outer loop
    vertex -7.933533402912354 3.9123857099127957 3.0
    vertex -7.071067811865477 2.9289321881345285 0.0
    vertex -7.071067811865477 2.9289321881345285 3.0
  endloop
endfacet
facet normal -0.7518398074789772 -0.6593458151000694 5.77739321785223e-17
  outer loop
    vertex -7.071067811865477 2.9289321881345285 0.0
    vertex -7.933533402912354 3.9123857099127957 3.0
    vertex -7.933533402912354 3.9123857099127957 0.0
  endloop
endfacet
facet normal -0.8314696123025452 -0.5555702330196023 6.389295766440608e-17
  outer loop
    vertex -8.660254037844387 5.000000000000001 3.0
    vertex -7.933533402912354 3.9123857099127957 0.0
    vertex -7.933533402912354 3.9123857099127957 3.0
  endloop
endfacet
facet normal -0.8314696123025452 -0.5555702330196023 6.389295766440608e-17
  outer loop
    vertex -7.933533402912354 3.9123857099127957 0.0
    vertex -8.660254037844387 5.000000000000001 3.0
    vertex -8.660254037844387 5.000000000000001 0.0
  endloop
endfacet
facet normal -0.8968727415326888 -0.4422886902190006 6.891875693017738e-17
  outer loop
    vertex -9.238795325112866 6.173165676349101 3.0
    vertex -8.660254037844387 5.000000000000001 0.0
    vertex -8.660254037844387 5.000000000000001 3.0
  endloop
endfacet
facet normal -0.8968727415326888 -0.4422886902190006 6.891875693017738e-17
  outer loop
    vertex -8.660254037844387 5.000000000000001 0.0
    vertex -9.238795325112866 6.173165676349101 3.0
    vertex -9.238795325112866 6.173165676349101 0.0
  endloop
endfacet
facet normal -0.9469301294951055 -0.3214394653031623 7.27653371569839e-17
  outer loop
    vertex -9.659258262890683 7.411809548974791 3.0
    vertex -9.238795325112866 6.173165676349101 0.0
    vertex -9.238795325112866 6.173165676349101 3.0
  endloop
endfacet
facet normal -0.9469301294951055 -0.3214394653031623 7.27653371569839e-17
  outer loop
    vertex -9.238795325112866 6.173165676349101 0.0
    vertex -9.659258262890683 7.411809548974791 3.0
    vertex -9.659258262890683 7.411809548974791 0.0
  endloop
endfacet
facet normal -0.9807852804032304 -0.1950903220161284 7.536688229067167e-17
  outer loop
    vertex -9.914448613738104 8.694738077799483 3.0
    vertex -9.659258262890683 7.411809548974791 0.0
    vertex -9.659258262890683 7.411809548974791 3.0
  endloop
endfacet
facet normal -0.9807852804032304 -0.1950903220161284 7.536688229067167e-17
  outer loop
    vertex -9.659258262890683 7.411809548974791 0.0
    vertex -9.914448613738104 8.694738077799483 3.0
    vertex -9.914448613738104 8.694738077799483 0.0
  endloop
endfacet
facet normal -0.9978589232386036 -0.0654031292301431 7.66788791727186e-17
  outer loop
    vertex -10.0 10.0 3.0
    vertex -9.914448613738104 8.694738077799483 0.0
    vertex -9.914448613738104 8.694738077799483 3.0
  endloop
endfacet
facet normal -0.9978589232386036 -0.0654031292301431 7.66788791727186e-17
  outer loop
    vertex -9.914448613738104 8.694738077799483 0.0
    vertex -10.0 10.0 3.0
    vertex -10.0 10.0 0.0
  endloop
endfacet
facet normal -0.9978589232386036 0.06540312923014317 7.667887917271862e-17
  outer loop
    vertex -9.914448613738104 11.305261922200515 3.0
    vertex -10.0 10.0 0.0
    vertex -10.0 10.0 3.0
  endloop
endfacet
facet normal -0.9978589232386036 0.06540312923014317 7.667887917271862e-17
  outer loop
    vertex -10.0 10.0 0.0
    vertex -9.914448613738104 11.305261922200515 3.0
    vertex -9.914448613738104 11.305261922200515 0.0
  endloop
endfacet
facet normal -0.9807852804032304 0.1950903220161284 7.536688229067176e-17
  outer loop
    vertex -9.659258262890683 12.588190451025207 3.0
    vertex -9.914448613738104 11.305261922200515 0.0
    vertex -9.914448613738104 11.305261922200515 3.0
  endloop
endfacet
facet normal -0.9807852804032304 0.1950903220161284 7.536688229067176e-17
  outer loop
    vertex -9.914448613738104 11.305261922200515 0.0
    vertex -9.659258262890683 12.588190451025207 3.0
    vertex -9.659258262890683 12.588190451025207 0.0
  endloop
endfacet
facet normal -0.946930129495106 0.32143946530316103 7.27653371569841e-17
  outer loop
    vertex -9.238795325112868 13.8268343236509 3.0
    vertex -9.659258262890683 12.588190451025207 0.0
    vertex -9.659258262890683 12.588190451025207 3.0
  endloop
endfacet
facet normal -0.946930129495106 0.32143946530316103 7.27653371569841e-17
  outer loop
    vertex -9.659258262890683 12.588190451025207 0.0
    vertex -9.238795325112868 13.8268343236509 3.0
    vertex -9.238795325112868 13.8268343236509 0.0
  endloop
endfacet
facet normal -0.8968727415326878 0.44228869021900274 6.891875693017748e-17
  outer loop
    vertex -8.660254037844386 15.0 3.0
    vertex -9.238795325112868 13.8268343236509 0.0
    vertex -9.238795325112868 13.8268343236509 3.0
  endloop
endfacet
facet normal -0.8968727415326878 0.44228869021900274 6.891875693017748e-17
  outer loop
    vertex -9.238795325112868 13.8268343236509 0.0
    vertex -8.660254037844386 15.0 3.0
    vertex -8.660254037844386 15.0 0.0
  endloop
endfacet
facet normal -0.8314696123025451 0.5555702330196025 6.389295766440632e-17
  outer loop
    vertex -7.933533402912348 16.08761429008721 3.0
    vertex -8.660254037844386 15.0 0.0
    vertex -8.660254037844386 15.0 3.0
  endloop
endfacet
facet normal -0.8314696123025451 0.5555702330196025 6.389295766440632e-17
  outer loop
    vertex -8.660254037844386 15.0 0.0
    vertex -7.933533402912348 16.08761429008721 3.0
    vertex -7.933533402912348 16.08761429008721 0.0
  endloop
endfacet
facet normal -0.7518398074789777 0.6593458151000685 5.777393217852262e-17
  outer loop
    vertex -7.071067811865473 17.07106781186548 3.0
    vertex -7.933533402912348 16.08761429008721 0.0
    vertex -7.933533402912348 16.08761429008721 3.0
  endloop
endfacet
facet normal -0.7518398074789777 0.6593458151000685 5.777393217852262e-17
  outer loop
    vertex -7.933533402912348 16.08761429008721 0.0
    vertex -7.071067811865473 17.07106781186548 3.0
    vertex -7.071067811865473 17.07106781186548 0.0
  endloop
endfacet
facet normal -0.6593458151000683 0.751839807478978 5.0666378695104154e-17
  outer loop
    vertex -7.071067811865473 17.07106781186548 3.0
    vertex -6.087614290087204 17.933533402912353 0.0
    vertex -7.071067811865473 17.07106781186548 0.0
  endloop
endfacet
facet normal -0.6593458151000683 0.751839807478978 5.0666378695104154e-17
  outer loop
    vertex -6.087614290087204 17.933533402912353 0.0
    vertex -7.071067811865473 17.07106781186548 3.0
    vertex -6.087614290087204 17.933533402912353 3.0
  endloop
endfacet
facet normal -0.5555702330196013 0.831469612302546 4.2691909424838474e-17
  outer loop
    vertex -6.087614290087204 17.933533402912353 3.0
    vertex -4.999999999999998 18.660254037844386 0.0
    vertex -6.087614290087204 17.933533402912353 0.0
  endloop
endfacet
facet normal -0.5555702330196013 0.831469612302546 4.2691909424838474e-17
  outer loop
    vertex -4.999999999999998 18.660254037844386 0.0
    vertex -6.087614290087204 17.933533402912353 3.0
    vertex -4.999999999999998 18.660254037844386 3.0
  endloop
endfacet
facet normal -0.44228869021900113 0.8968727415326884 3.398696974788042e-17
  outer loop
    vertex -4.999999999999998 18.660254037844386 3.0
    vertex -3.8268343236508975 19.238795325112864 0.0
    vertex -4.999999999999998 18.660254037844386 0.0
  endloop
endfacet
facet normal -0.44228869021900113 0.8968727415326884 3.398696974788042e-17
  outer loop
    vertex -3.8268343236508975 19.238795325112864 0.0
    vertex -4.999999999999998 18.660254037844386 3.0
    vertex -3.8268343236508975 19.238795325112864 3.0
  endloop
endfacet
facet normal -0.3214394653031611 0.9469301294951059 2.4700503595567826e-17
  outer loop
    vertex -3.8268343236508975 19.238795325112864 3.0
    vertex -2.588190451025207 19.65925826289068 0.0
    vertex -3.8268343236508975 19.238795325112864 0.0
  endloop
endfacet
facet normal -0.3214394653031611 0.9469301294951059 2.4700503595567826e-17
  outer loop
    vertex -2.588190451025207 19.65925826289068 0.0
    vertex -3.8268343236508975 19.238795325112864 3.0
    vertex -2.5881904510252065 19.65925826289068 3.0
  endloop
endfacet
facet normal -0.19509032201612855 0.9807852804032305 1.4991404978461762e-17
  outer loop
    vertex -2.5881904510252065 19.65925826289068 3.0
    vertex -1.3052619222005155 19.914448613738102 0.0
    vertex -2.588190451025207 19.65925826289068 0.0
  endloop
endfacet
facet normal -0.19509032201612855 0.9807852804032305 1.4991404978461762e-17
  outer loop
    vertex -1.3052619222005155 19.914448613738102 0.0
    vertex -2.5881904510252065 19.65925826289068 3.0
    vertex -1.3052619222005155 19.914448613738102 3.0
  endloop
endfacet
facet normal -0.06540312923014532 0.9978589232386035 5.025799265771611e-18
  outer loop
    vertex -1.3052619222005155 19.914448613738102 3.0
    vertex 0.0 20.0 0.0
    vertex -1.3052619222005155 19.914448613738102 0.0
  endloop
endfacet
facet normal -0.06540312923014532 0.9978589232386035 5.025799265771611e-18
  outer loop
    vertex 0.0 20.0 0.0
    vertex -1.3052619222005155 19.914448613738102 3.0
    vertex 2.305302204158879e-16 20.0 3.0
  endloop
endfacet
facet normal -0.0 1.0 2.1210117731645696e-31
  outer loop
    vertex 2.305302204158879e-16 20.0 3.0
    vertex 80.0 20.0 0.0
    vertex 0.0 20.0 0.0
  endloop
endfacet
facet normal -0.0 1.0 2.1210117731645696e-31
  outer loop
    vertex 80.0 20.0 0.0
    vertex 2.305302204158879e-16 20.0 3.0
    vertex 80.0 20.0 3.0
  endloop
endfacet
facet normal 0.06540312923014517 0.9978589232386034 -5.025799265771178e-18
  outer loop
    vertex 80.0 20.0 0.0
    vertex 81.30526192220051 19.914448613738102 2.9999999999999987
    vertex 81.30526192220051 19.914448613738102 -1.4670022287335197e-15
  endloop
endfacet
facet normal 0.06540312923014517 0.9978589232386034 -5.025799265771178e-18
  outer loop
    vertex 81.30526192220051 19.914448613738102 2.9999999999999987
    vertex 80.0 20.0 0.0
    vertex 80.0 20.0 3.0
  endloop
endfacet
facet normal 0.19509032201612925 0.9807852804032304 -1.49914049784614e-17
  outer loop
    vertex 81.30526192220051 19.914448613738102 -1.4670022287335197e-15
    vertex 82.5881904510252 19.65925826289068 2.9999999999999973
    vertex 82.5881904510252 19.65925826289068 -2.908903642603551e-15
  endloop
endfacet
facet normal 0.19509032201612925 0.9807852804032304 -1.49914049784614e-17
  outer loop
    vertex 82.5881904510252 19.65925826289068 2.9999999999999973
    vertex 81.30526192220051 19.914448613738102 -1.4670022287335197e-15
    vertex 81.30526192220051 19.914448613738102 2.9999999999999987
  endloop
endfacet
facet normal 0.3214394653031607 0.9469301294951061 -2.4700503595567395e-17
  outer loop
    vertex 82.5881904510252 19.65925826289068 -2.908903642603551e-15
    vertex 83.8268343236509 19.238795325112864 2.999999999999996
    vertex 83.8268343236509 19.238795325112864 -4.301032908648181e-15
  endloop
endfacet
facet normal 0.3214394653031607 0.9469301294951061 -2.4700503595567395e-17
  outer loop
    vertex 83.8268343236509 19.238795325112864 2.999999999999996
    vertex 82.5881904510252 19.65925826289068 -2.908903642603551e-15
    vertex 82.5881904510252 19.65925826289068 2.9999999999999973
  endloop
endfacet
facet normal 0.4422886902190001 0.8968727415326889 -3.3986969747879964e-17
  outer loop
    vertex 83.8268343236509 19.238795325112864 -4.301032908648181e-15
    vertex 85.0 18.660254037844386 2.9999999999999947
    vertex 85.0 18.660254037844386 -5.619570309154231e-15
  endloop
endfacet
facet normal 0.4422886902190001 0.8968727415326889 -3.3986969747879964e-17
  outer loop
    vertex 85.0 18.660254037844386 2.9999999999999947
    vertex 83.8268343236509 19.238795325112864 -4.301032908648181e-15
    vertex 83.8268343236509 19.238795325112864 2.999999999999996
  endloop
endfacet
facet normal 0.5555702330196022 0.8314696123025452 -4.2691909424838184e-17
  outer loop
    vertex 85.0 18.660254037844386 -5.619570309154231e-15
    vertex 86.0876142900872 17.933533402912353 2.9999999999999933
    vertex 86.0876142900872 17.933533402912353 -6.8419553036314144e-15
  endloop
endfacet
facet normal 0.5555702330196022 0.8314696123025452 -4.2691909424838184e-17
  outer loop
    vertex 86.0876142900872 17.933533402912353 2.9999999999999933
    vertex 85.0 18.660254037844386 -5.619570309154231e-15
    vertex 85.0 18.660254037844386 2.9999999999999947
  endloop
endfacet
facet normal 0.6593458151000708 0.7518398074789759 -5.066637869510405e-17
  outer loop
    vertex 86.0876142900872 17.933533402912353 -6.8419553036314144e-15
    vertex 87.07106781186548 17.071067811865476 2.999999999999992
    vertex 87.07106781186548 17.071067811865476 -7.94727254591508e-15
  endloop
endfacet
facet normal 0.6593458151000708 0.7518398074789759 -5.066637869510405e-17
  outer loop
    vertex 87.07106781186548 17.071067811865476 2.999999999999992
    vertex 86.0876142900872 17.933533402912353 -6.8419553036314144e-15
    vertex 86.0876142900872 17.933533402912353 2.9999999999999933
  endloop
endfacet
facet normal 0.7518398074789759 0.6593458151000708 -5.77739321785222e-17
  outer loop
    vertex 87.07106781186548 17.071067811865476 -7.94727254591508e-15
    vertex 87.93353340291235 16.08761429008721 2.999999999999991
    vertex 87.93353340291235 16.08761429008721 -8.916609751537914e-15
  endloop
endfacet
facet normal 0.7518398074789759 0.6593458151000708 -5.77739321785222e-17
  outer loop
    vertex 87.93353340291235 16.08761429008721 2.999999999999991
    vertex 87.07106781186548 17.071067811865476 -7.94727254591508e-15
    vertex 87.07106781186548 17.071067811865476 2.999999999999992
  endloop
endfacet
facet normal 0.8314696123025466 0.5555702330196003 -6.389295766440619e-17
  outer loop
    vertex 87.93353340291235 16.08761429008721 -8.916609751537914e-15
    vertex 88.66025403784438 15.0 2.9999999999999902
    vertex 88.66025403784438 15.0 -9.733381292160671e-15
  endloop
endfacet
facet normal 0.8314696123025466 0.5555702330196003 -6.389295766440619e-17
  outer loop
    vertex 88.66025403784438 15.0 2.9999999999999902
    vertex 87.93353340291235 16.08761429008721 -8.916609751537914e-15
    vertex 87.93353340291235 16.08761429008721 2.999999999999991
  endloop
endfacet
facet normal 0.8968727415326874 0.44228869021900363 -6.891875693017727e-17
  outer loop
    vertex 88.66025403784438 15.0 -9.733381292160671e-15
    vertex 89.23879532511286 13.826834323650896 2.99999999999999
    vertex 89.23879532511286 13.826834323650896 -1.0383611980271438e-14
  endloop
endfacet
facet normal 0.8968727415326874 0.44228869021900363 -6.891875693017727e-17
  outer loop
    vertex 89.23879532511286 13.826834323650896 2.99999999999999
    vertex 88.66025403784438 15.0 -9.733381292160671e-15
    vertex 88.66025403784438 15.0 2.9999999999999902
  endloop
endfacet
facet normal 0.9469301294951045 0.32143946530316514 -7.276533715698381e-17
  outer loop
    vertex 89.23879532511286 13.826834323650896 -1.0383611980271438e-14
    vertex 89.65925826289069 12.588190451025207 2.9999999999999893
    vertex 89.65925826289069 12.588190451025207 -1.0856176188518632e-14
  endloop
endfacet
facet normal 0.9469301294951045 0.32143946530316514 -7.276533715698381e-17
  outer loop
    vertex 89.65925826289069 12.588190451025207 2.9999999999999893
    vertex 89.23879532511286 13.826834323650896 -1.0383611980271438e-14
    vertex 89.23879532511286 13.826834323650896 2.99999999999999
  endloop
endfacet
facet normal 0.9807852804032313 0.19509032201612425 -7.536688229067174e-17
  outer loop
    vertex 89.65925826289069 12.588190451025207 -1.0856176188518632e-14
    vertex 89.9144486137381 11.305261922200515 2.999999999999989
    vertex 89.9144486137381 11.305261922200515 -1.1142988212279597e-14
  endloop
endfacet
facet normal 0.9807852804032313 0.19509032201612425 -7.536688229067174e-17
  outer loop
    vertex 89.9144486137381 11.305261922200515 2.999999999999989
    vertex 89.65925826289069 12.588190451025207 -1.0856176188518632e-14
    vertex 89.65925826289069 12.588190451025207 2.9999999999999893
  endloop
endfacet
facet normal 0.9978589232386038 0.06540312923013887 -7.667887917271861e-17
  outer loop
    vertex 89.9144486137381 11.305261922200515 -1.1142988212279597e-14
    vertex 90.0 9.999999999999998 2.999999999999989
    vertex 90.0 9.999999999999998 -1.1239140618308463e-14
  endloop
endfacet
facet normal 0.9978589232386038 0.06540312923013887 -7.667887917271861e-17
  outer loop
    vertex 90.0 9.999999999999998 2.999999999999989
    vertex 89.9144486137381 11.305261922200515 -1.1142988212279597e-14
    vertex 89.9144486137381 11.305261922200515 2.999999999999989
  endloop
endfacet
facet normal 0.9978589232386038 -0.0654031292301388 -7.667887917271865e-17
  outer loop
    vertex 90.0 9.999999999999998 -1.1239140618308463e-14
    vertex 89.9144486137381 8.694738077799482 2.999999999999989
    vertex 89.9144486137381 8.694738077799482 -1.1142988212279597e-14
  endloop
endfacet
facet normal 0.9978589232386038 -0.0654031292301388 -7.667887917271865e-17
  outer loop
    vertex 89.9144486137381 8.694738077799482 2.999999999999989
    vertex 90.0 9.999999999999998 -1.1239140618308463e-14
    vertex 90.0 9.999999999999998 2.999999999999989
  endloop
endfacet
facet normal 0.9807852804032313 -0.19509032201612425 -7.536688229067183e-17
  outer loop
    vertex 89.9144486137381 8.694738077799482 -1.1142988212279597e-14
    vertex 89.65925826289069 7.411809548974789 2.9999999999999893
    vertex 89.65925826289069 7.411809548974789 -1.0856176188518632e-14
  endloop
endfacet
facet normal 0.9807852804032313 -0.19509032201612425 -7.536688229067183e-17
  outer loop
    vertex 89.65925826289069 7.411809548974789 2.9999999999999893
    vertex 89.9144486137381 8.694738077799482 -1.1142988212279597e-14
    vertex 89.9144486137381 8.694738077799482 2.999999999999989
  endloop
endfacet
facet normal 0.9469301294951045 -0.32143946530316514 -7.276533715698396e-17
  outer loop
    vertex 89.65925826289069 7.411809548974789 -1.0856176188518632e-14
    vertex 89.23879532511286 6.173165676349099 2.99999999999999
    vertex 89.23879532511286 6.173165676349099 -1.0383611980271436e-14
  endloop
endfacet
facet normal 0.9469301294951045 -0.32143946530316514 -7.276533715698396e-17
  outer loop
    vertex 89.23879532511286 6.173165676349099 2.99999999999999
    vertex 89.65925826289069 7.411809548974789 -1.0856176188518632e-14
    vertex 89.65925826289069 7.411809548974789 2.9999999999999893
  endloop
endfacet
facet normal 0.8968727415326867 -0.4422886902190049 -6.891875693017739e-17
  outer loop
    vertex 89.23879532511286 6.173165676349099 -1.0383611980271436e-14
    vertex 88.66025403784438 4.999999999999999 2.9999999999999902
    vertex 88.66025403784438 4.999999999999999 -9.733381292160674e-15
  endloop
endfacet
facet normal 0.8968727415326867 -0.4422886902190049 -6.891875693017739e-17
  outer loop
    vertex 88.66025403784438 4.999999999999999 2.9999999999999902
    vertex 89.23879532511286 6.173165676349099 -1.0383611980271436e-14
    vertex 89.23879532511286 6.173165676349099 2.99999999999999
  endloop
endfacet
facet normal 0.8314696123025458 -0.5555702330196015 -6.389295766440636e-17
  outer loop
    vertex 88.66025403784438 4.999999999999999 -9.733381292160674e-15
    vertex 87.93353340291235 3.9123857099127943 2.999999999999991
    vertex 87.93353340291235 3.9123857099127943 -8.91660975153792e-15
  endloop
endfacet
facet normal 0.8314696123025458 -0.5555702330196015 -6.389295766440636e-17
  outer loop
    vertex 87.93353340291235 3.9123857099127943 2.999999999999991
    vertex 88.66025403784438 4.999999999999999 -9.733381292160674e-15
    vertex 88.66025403784438 4.999999999999999 2.9999999999999902
  endloop
endfacet
facet normal 0.7518398074789766 -0.6593458151000701 -5.777393217852254e-17
  outer loop
    vertex 87.93353340291235 3.9123857099127943 -8.91660975153792e-15
    vertex 87.07106781186548 2.9289321881345267 2.999999999999992
    vertex 87.07106781186548 2.9289321881345267 -7.947272545915083e-15
  endloop
endfacet
facet normal 0.7518398074789766 -0.6593458151000701 -5.777393217852254e-17
  outer loop
    vertex 87.07106781186548 2.9289321881345267 2.999999999999992
    vertex 87.93353340291235 3.9123857099127943 -8.91660975153792e-15
    vertex 87.93353340291235 3.9123857099127943 2.999999999999991
  endloop
endfacet
facet normal 0.6593458151000696 -0.7518398074789768 -5.066637869510426e-17
  outer loop
    vertex 87.07106781186548 2.9289321881345267 2.999999999999992
    vertex 86.0876142900872 2.066466597087652 -6.841955303631421e-15
    vertex 87.07106781186548 2.9289321881345267 -7.947272545915083e-15
  endloop
endfacet
facet normal 0.6593458151000696 -0.7518398074789768 -5.066637869510426e-17
  outer loop
    vertex 86.0876142900872 2.066466597087652 -6.841955303631421e-15
    vertex 87.07106781186548 2.9289321881345267 2.999999999999992
    vertex 86.0876142900872 2.066466597087652 2.9999999999999933
  endloop
endfacet
facet normal 0.5555702330196037 -0.8314696123025443 -4.269190942483867e-17
  outer loop
    vertex 86.0876142900872 2.066466597087652 2.9999999999999933
    vertex 85.0 1.3397459621556167 -5.619570309154238e-15
    vertex 86.0876142900872 2.066466597087652 -6.841955303631421e-15
  endloop
endfacet
facet normal 0.5555702330196037 -0.8314696123025443 -4.269190942483867e-17
  outer loop
    vertex 85.0 1.3397459621556167 -5.619570309154238e-15
    vertex 86.0876142900872 2.066466597087652 2.9999999999999933
    vertex 85.0 1.3397459621556167 2.9999999999999947
  endloop
endfacet
facet normal 0.4422886902190001 -0.8968727415326889 -3.398696974788034e-17
  outer loop
    vertex 85.0 1.3397459621556167 2.9999999999999947
    vertex 83.8268343236509 0.7612046748871365 -4.301032908648189e-15
    vertex 85.0 1.3397459621556167 -5.619570309154238e-15
  endloop
endfacet
facet normal 0.4422886902190001 -0.8968727415326889 -3.398696974788034e-17
  outer loop
    vertex 83.8268343236509 0.7612046748871365 -4.301032908648189e-15
    vertex 85.0 1.3397459621556167 2.9999999999999947
    vertex 83.8268343236509 0.7612046748871365 2.999999999999996
  endloop
endfacet
facet normal 0.3214394653031643 -0.9469301294951049 -2.4700503595568073e-17
  outer loop
    vertex 83.8268343236509 0.7612046748871365 2.999999999999996
    vertex 82.58819045102521 0.3407417371093203 -2.908903642603561e-15
    vertex 83.8268343236509 0.7612046748871365 -4.301032908648189e-15
  endloop
endfacet
facet normal 0.3214394653031643 -0.9469301294951049 -2.4700503595568073e-17
  outer loop
    vertex 82.58819045102521 0.3407417371093203 -2.908903642603561e-15
    vertex 83.8268343236509 0.7612046748871365 2.999999999999996
    vertex 82.58819045102521 0.3407417371093203 2.9999999999999973
  endloop
endfacet
facet normal 0.19509032201612925 -0.9807852804032304 -1.4991404978461815e-17
  outer loop
    vertex 82.58819045102521 0.3407417371093203 2.9999999999999973
    vertex 81.30526192220053 0.08555138626189882 -1.4670022287335325e-15
    vertex 82.58819045102521 0.3407417371093203 -2.908903642603561e-15
  endloop
endfacet
facet normal 0.19509032201612925 -0.9807852804032304 -1.4991404978461815e-17
  outer loop
    vertex 81.30526192220053 0.08555138626189882 -1.4670022287335325e-15
    vertex 82.58819045102521 0.3407417371093203 2.9999999999999973
    vertex 81.30526192220053 0.08555138626189882 2.9999999999999987
  endloop
endfacet
facet normal 0.06540312923014462 -0.9978589232386035 -5.025799265771557e-18
  outer loop
    vertex 81.30526192220053 0.08555138626189882 2.9999999999999987
    vertex 80.0 0.0 0.0
    vertex 81.30526192220053 0.08555138626189882 -1.4670022287335325e-15
  endloop
endfacet
facet normal 0.06540312923014462 -0.9978589232386035 -5.025799265771557e-18
  outer loop
    vertex 80.0 0.0 0.0
    vertex 81.30526192220053 0.08555138626189882 2.9999999999999987
    vertex 80.0 -6.363035319493708e-31 3.0
  endloop
endfacet
endsolid v2_base_inset
