solid Visualization Toolkit generated SLA File
 facet normal 1 0 -0
  outer loop
   vertex 79.5 5.5 20
   vertex 79.5 64.5 15
   vertex 79.5 64.5 20
  endloop
 endfacet
 facet normal 1 0 0
  outer loop
   vertex 79.5 64.5 15
   vertex 79.5 5.5 20
   vertex 79.5 5.5 15
  endloop
 endfacet
 facet normal -0 0 1
  outer loop
   vertex 79.5 64.5 20
   vertex 31.5 11.5 20
   vertex 79.5 5.5 20
  endloop
 endfacet
 facet normal 0 -0 1
  outer loop
   vertex 20.5 64.5 20
   vertex 31.5 11.5 20
   vertex 79.5 64.5 20
  endloop
 endfacet
 facet normal 0 0 1
  outer loop
   vertex 20.5 5.5 20
   vertex 21.5 11.5 20
   vertex 20.5 64.5 20
  endloop
 endfacet
 facet normal 0 0 1
  outer loop
   vertex 31.5 11.5 20
   vertex 20.5 64.5 20
   vertex 21.5 11.5 20
  endloop
 endfacet
 facet normal 0 0 1
  outer loop
   vertex 31.5 6.5 20
   vertex 79.5 5.5 20
   vertex 31.5 11.5 20
  endloop
 endfacet
 facet normal 0 0 1
  outer loop
   vertex 20.5 5.5 20
   vertex 31.5 6.5 20
   vertex 21.5 6.5 20
  endloop
 endfacet
 facet normal 0 0 1
  outer loop
   vertex 31.5 6.5 20
   vertex 20.5 5.5 20
   vertex 79.5 5.5 20
  endloop
 endfacet
 facet normal 0 0 1
  outer loop
   vertex 21.5 11.5 20
   vertex 20.5 5.5 20
   vertex 21.5 6.5 20
  endloop
 endfacet
 facet normal 0 -0 -1
  outer loop
   vertex 20.5 5.5 15
   vertex 79.5 64.5 15
   vertex 79.5 5.5 15
  endloop
 endfacet
 facet normal 0 0 -1
  outer loop
   vertex 79.5 64.5 15
   vertex 20.5 5.5 15
   vertex 20.5 64.5 15
  endloop
 endfacet
 facet normal -1 0 -0
  outer loop
   vertex 20.5 5.5 15
   vertex 20.5 64.5 20
   vertex 20.5 64.5 15
  endloop
 endfacet
 facet normal -1 0 0
  outer loop
   vertex 20.5 64.5 20
   vertex 20.5 5.5 15
   vertex 20.5 5.5 20
  endloop
 endfacet
 facet normal -0 1 0
  outer loop
   vertex 79.5 64.5 15
   vertex 20.5 64.5 20
   vertex 79.5 64.5 20
  endloop
 endfacet
 facet normal 0 1 0
  outer loop
   vertex 20.5 64.5 20
   vertex 79.5 64.5 15
   vertex 20.5 64.5 15
  endloop
 endfacet
 facet normal -0 -1 0
  outer loop
   vertex 20.5 5.5 15
   vertex 79.5 5.5 20
   vertex 20.5 5.5 20
  endloop
 endfacet
 facet normal 0 -1 0
  outer loop
   vertex 79.5 5.5 20
   vertex 20.5 5.5 15
   vertex 79.5 5.5 15
  endloop
 endfacet
 facet normal 1 0 -0
  outer loop
   vertex 31.5 6.5 40
   vertex 31.5 11.5 20
   vertex 31.5 11.5 40
  endloop
 endfacet
 facet normal 1 0 0
  outer loop
   vertex 31.5 11.5 20
   vertex 31.5 6.5 40
   vertex 31.5 6.5 20
  endloop
 endfacet
 facet normal 0 -0 1
  outer loop
   vertex 21.5 11.5 40
   vertex 31.5 6.5 40
   vertex 31.5 11.5 40
  endloop
 endfacet
 facet normal 0 0 1
  outer loop
   vertex 31.5 6.5 40
   vertex 21.5 11.5 40
   vertex 21.5 6.5 40
  endloop
 endfacet
 facet normal -1 0 -0
  outer loop
   vertex 21.5 6.5 20
   vertex 21.5 11.5 40
   vertex 21.5 11.5 20
  endloop
 endfacet
 facet normal -1 0 0
  outer loop
   vertex 21.5 11.5 40
   vertex 21.5 6.5 20
   vertex 21.5 6.5 40
  endloop
 endfacet
 facet normal -0 1 0
  outer loop
   vertex 31.5 11.5 20
   vertex 21.5 11.5 40
   vertex 31.5 11.5 40
  endloop
 endfacet
 facet normal 0 1 0
  outer loop
   vertex 21.5 11.5 40
   vertex 31.5 11.5 20
   vertex 21.5 11.5 20
  endloop
 endfacet
 facet normal -0 -1 0
  outer loop
   vertex 21.5 6.5 20
   vertex 31.5 6.5 40
   vertex 21.5 6.5 40
  endloop
 endfacet
 facet normal 0 -1 0
  outer loop
   vertex 31.5 6.5 40
   vertex 21.5 6.5 20
   vertex 31.5 6.5 20
  endloop
 endfacet
endsolid
