solid Visualization Toolkit generated SLA File
 facet normal 1 -0 0
  outer loop
   vertex 100 67.5 22
   vertex 100 36.299999237060547 17
   vertex 100 67.5 12
  endloop
 endfacet
 facet normal 1 -0 0
  outer loop
   vertex 100 67.5 22
   vertex 100 36.295989990234375 17.101997375488281
   vertex 100 36.299999237060547 17
  endloop
 endfacet
 facet normal 1 -0 0
  outer loop
   vertex 100 67.5 22
   vertex 100 36.28399658203125 17.203365325927734
   vertex 100 36.295989990234375 17.101997375488281
  endloop
 endfacet
 facet normal 1 -0 0
  outer loop
   vertex 100 67.5 22
   vertex 100 36.264080047607422 17.303478240966797
   vertex 100 36.28399658203125 17.203365325927734
  endloop
 endfacet
 facet normal 1 -0 0
  outer loop
   vertex 100 67.5 22
   vertex 100 36.236373901367188 17.401721954345703
   vertex 100 36.264080047607422 17.303478240966797
  endloop
 endfacet
 facet normal 1 -0 0
  outer loop
   vertex 100 67.5 22
   vertex 100 36.201042175292969 17.497488021850586
   vertex 100 36.236373901367188 17.401721954345703
  endloop
 endfacet
 facet normal 1 -0 0
  outer loop
   vertex 100 67.5 22
   vertex 100 36.158309936523438 17.590187072753906
   vertex 100 36.201042175292969 17.497488021850586
  endloop
 endfacet
 facet normal 1 -0 0
  outer loop
   vertex 100 67.5 22
   vertex 100 36.108432769775391 17.679248809814453
   vertex 100 36.158309936523438 17.590187072753906
  endloop
 endfacet
 facet normal 1 -0 0
  outer loop
   vertex 100 67.5 22
   vertex 100 36.051719665527344 17.764120101928711
   vertex 100 36.108432769775391 17.679248809814453
  endloop
 endfacet
 facet normal 1 -0 0
  outer loop
   vertex 100 67.5 22
   vertex 100 35.988525390625 17.844282150268555
   vertex 100 36.051719665527344 17.764120101928711
  endloop
 endfacet
 facet normal 1 -0 0
  outer loop
   vertex 100 67.5 22
   vertex 100 35.919239044189453 17.919239044189453
   vertex 100 35.988525390625 17.844282150268555
  endloop
 endfacet
 facet normal 1 -0 0
  outer loop
   vertex 100 67.5 22
   vertex 100 35.844284057617188 17.988527297973633
   vertex 100 35.919239044189453 17.919239044189453
  endloop
 endfacet
 facet normal 1 -0 0
  outer loop
   vertex 100 67.5 22
   vertex 100 35.764122009277344 18.051721572875977
   vertex 100 35.844284057617188 17.988527297973633
  endloop
 endfacet
 facet normal 1 -0 0
  outer loop
   vertex 100 67.5 22
   vertex 100 35.679248809814453 18.108432769775391
   vertex 100 35.764122009277344 18.051721572875977
  endloop
 endfacet
 facet normal 1 -0 0
  outer loop
   vertex 100 67.5 22
   vertex 100 35.590187072753906 18.158308029174805
   vertex 100 35.679248809814453 18.108432769775391
  endloop
 endfacet
 facet normal 1 -0 0
  outer loop
   vertex 100 67.5 22
   vertex 100 35.497489929199219 18.201042175292969
   vertex 100 35.590187072753906 18.158308029174805
  endloop
 endfacet
 facet normal 1 -0 0
  outer loop
   vertex 100 67.5 22
   vertex 100 35.401721954345703 18.236373901367188
   vertex 100 35.497489929199219 18.201042175292969
  endloop
 endfacet
 facet normal 1 -0 0
  outer loop
   vertex 100 67.5 22
   vertex 100 35.303478240966797 18.264080047607422
   vertex 100 35.401721954345703 18.236373901367188
  endloop
 endfacet
 facet normal 1 -0 0
  outer loop
   vertex 100 67.5 22
   vertex 100 35.203365325927734 18.283994674682617
   vertex 100 35.303478240966797 18.264080047607422
  endloop
 endfacet
 facet normal 1 -0 0
  outer loop
   vertex 100 67.5 22
   vertex 100 35.101997375488281 18.295991897583008
   vertex 100 35.203365325927734 18.283994674682617
  endloop
 endfacet
 facet normal 1 -0 0
  outer loop
   vertex 100 67.5 22
   vertex 100 35 18.299999237060547
   vertex 100 35.101997375488281 18.295991897583008
  endloop
 endfacet
 facet normal 1 0 -0
  outer loop
   vertex 100 2.5 22
   vertex 100 35 18.299999237060547
   vertex 100 67.5 22
  endloop
 endfacet
 facet normal 1 0 0
  outer loop
   vertex 100 33.704006195068359 17.101997375488281
   vertex 100 2.5 22
   vertex 100 33.700000762939453 17
  endloop
 endfacet
 facet normal 1 0 0
  outer loop
   vertex 100 33.71600341796875 17.203365325927734
   vertex 100 2.5 22
   vertex 100 33.704006195068359 17.101997375488281
  endloop
 endfacet
 facet normal 1 0 0
  outer loop
   vertex 100 33.735919952392578 17.303478240966797
   vertex 100 2.5 22
   vertex 100 33.71600341796875 17.203365325927734
  endloop
 endfacet
 facet normal 1 0 0
  outer loop
   vertex 100 33.763626098632812 17.401721954345703
   vertex 100 2.5 22
   vertex 100 33.735919952392578 17.303478240966797
  endloop
 endfacet
 facet normal 1 0 0
  outer loop
   vertex 100 33.798957824707031 17.497488021850586
   vertex 100 2.5 22
   vertex 100 33.763626098632812 17.401721954345703
  endloop
 endfacet
 facet normal 1 0 0
  outer loop
   vertex 100 33.841690063476562 17.590187072753906
   vertex 100 2.5 22
   vertex 100 33.798957824707031 17.497488021850586
  endloop
 endfacet
 facet normal 1 0 0
  outer loop
   vertex 100 33.891567230224609 17.679248809814453
   vertex 100 2.5 22
   vertex 100 33.841690063476562 17.590187072753906
  endloop
 endfacet
 facet normal 1 0 0
  outer loop
   vertex 100 33.948276519775391 17.764120101928711
   vertex 100 2.5 22
   vertex 100 33.891567230224609 17.679248809814453
  endloop
 endfacet
 facet normal 1 0 0
  outer loop
   vertex 100 34.011470794677734 17.844282150268555
   vertex 100 2.5 22
   vertex 100 33.948276519775391 17.764120101928711
  endloop
 endfacet
 facet normal 1 0 0
  outer loop
   vertex 100 34.080760955810547 17.919239044189453
   vertex 100 2.5 22
   vertex 100 34.011470794677734 17.844282150268555
  endloop
 endfacet
 facet normal 1 0 0
  outer loop
   vertex 100 34.155715942382812 17.988527297973633
   vertex 100 2.5 22
   vertex 100 34.080760955810547 17.919239044189453
  endloop
 endfacet
 facet normal 1 0 0
  outer loop
   vertex 100 34.235877990722656 18.051721572875977
   vertex 100 2.5 22
   vertex 100 34.155715942382812 17.988527297973633
  endloop
 endfacet
 facet normal 1 0 0
  outer loop
   vertex 100 34.320751190185547 18.108432769775391
   vertex 100 2.5 22
   vertex 100 34.235877990722656 18.051721572875977
  endloop
 endfacet
 facet normal 1 0 0
  outer loop
   vertex 100 34.409812927246094 18.158308029174805
   vertex 100 2.5 22
   vertex 100 34.320751190185547 18.108432769775391
  endloop
 endfacet
 facet normal 1 0 0
  outer loop
   vertex 100 34.502510070800781 18.201042175292969
   vertex 100 2.5 22
   vertex 100 34.409812927246094 18.158308029174805
  endloop
 endfacet
 facet normal 1 0 0
  outer loop
   vertex 100 34.598278045654297 18.236373901367188
   vertex 100 2.5 22
   vertex 100 34.502510070800781 18.201042175292969
  endloop
 endfacet
 facet normal 1 0 0
  outer loop
   vertex 100 34.696521759033203 18.264080047607422
   vertex 100 2.5 22
   vertex 100 34.598278045654297 18.236373901367188
  endloop
 endfacet
 facet normal 1 0 0
  outer loop
   vertex 100 34.796634674072266 18.283994674682617
   vertex 100 2.5 22
   vertex 100 34.696521759033203 18.264080047607422
  endloop
 endfacet
 facet normal 1 0 0
  outer loop
   vertex 100 34.898002624511719 18.295991897583008
   vertex 100 2.5 22
   vertex 100 34.796634674072266 18.283994674682617
  endloop
 endfacet
 facet normal 1 0 0
  outer loop
   vertex 100 35 18.299999237060547
   vertex 100 2.5 22
   vertex 100 34.898002624511719 18.295991897583008
  endloop
 endfacet
 facet normal 1 0 0
  outer loop
   vertex 100 36.295989990234375 16.898002624511719
   vertex 100 67.5 12
   vertex 100 36.299999237060547 17
  endloop
 endfacet
 facet normal 1 0 0
  outer loop
   vertex 100 36.28399658203125 16.796634674072266
   vertex 100 67.5 12
   vertex 100 36.295989990234375 16.898002624511719
  endloop
 endfacet
 facet normal 1 0 0
  outer loop
   vertex 100 36.264080047607422 16.696521759033203
   vertex 100 67.5 12
   vertex 100 36.28399658203125 16.796634674072266
  endloop
 endfacet
 facet normal 1 0 0
  outer loop
   vertex 100 36.236373901367188 16.598278045654297
   vertex 100 67.5 12
   vertex 100 36.264080047607422 16.696521759033203
  endloop
 endfacet
 facet normal 1 0 0
  outer loop
   vertex 100 36.201042175292969 16.502510070800781
   vertex 100 67.5 12
   vertex 100 36.236373901367188 16.598278045654297
  endloop
 endfacet
 facet normal 1 0 0
  outer loop
   vertex 100 36.158309936523438 16.409812927246094
   vertex 100 67.5 12
   vertex 100 36.201042175292969 16.502510070800781
  endloop
 endfacet
 facet normal 1 0 0
  outer loop
   vertex 100 36.108432769775391 16.320751190185547
   vertex 100 67.5 12
   vertex 100 36.158309936523438 16.409812927246094
  endloop
 endfacet
 facet normal 1 0 0
  outer loop
   vertex 100 36.051719665527344 16.235877990722656
   vertex 100 67.5 12
   vertex 100 36.108432769775391 16.320751190185547
  endloop
 endfacet
 facet normal 1 0 0
  outer loop
   vertex 100 35.988525390625 16.155715942382812
   vertex 100 67.5 12
   vertex 100 36.051719665527344 16.235877990722656
  endloop
 endfacet
 facet normal 1 0 0
  outer loop
   vertex 100 35.919239044189453 16.080760955810547
   vertex 100 67.5 12
   vertex 100 35.988525390625 16.155715942382812
  endloop
 endfacet
 facet normal 1 0 0
  outer loop
   vertex 100 35.844284057617188 16.011470794677734
   vertex 100 67.5 12
   vertex 100 35.919239044189453 16.080760955810547
  endloop
 endfacet
 facet normal 1 0 0
  outer loop
   vertex 100 35.764122009277344 15.948277473449707
   vertex 100 67.5 12
   vertex 100 35.844284057617188 16.011470794677734
  endloop
 endfacet
 facet normal 1 0 0
  outer loop
   vertex 100 35.679248809814453 15.891567230224609
   vertex 100 67.5 12
   vertex 100 35.764122009277344 15.948277473449707
  endloop
 endfacet
 facet normal 1 0 0
  outer loop
   vertex 100 35.590187072753906 15.841691017150879
   vertex 100 67.5 12
   vertex 100 35.679248809814453 15.891567230224609
  endloop
 endfacet
 facet normal 1 0 0
  outer loop
   vertex 100 35.497489929199219 15.798955917358398
   vertex 100 67.5 12
   vertex 100 35.590187072753906 15.841691017150879
  endloop
 endfacet
 facet normal 1 0 0
  outer loop
   vertex 100 35.401721954345703 15.763626098632812
   vertex 100 67.5 12
   vertex 100 35.497489929199219 15.798955917358398
  endloop
 endfacet
 facet normal 1 0 0
  outer loop
   vertex 100 35.303478240966797 15.735918998718262
   vertex 100 67.5 12
   vertex 100 35.401721954345703 15.763626098632812
  endloop
 endfacet
 facet normal 1 0 0
  outer loop
   vertex 100 35.203365325927734 15.716004371643066
   vertex 100 67.5 12
   vertex 100 35.303478240966797 15.735918998718262
  endloop
 endfacet
 facet normal 1 0 0
  outer loop
   vertex 100 35.101997375488281 15.704007148742676
   vertex 100 67.5 12
   vertex 100 35.203365325927734 15.716004371643066
  endloop
 endfacet
 facet normal 1 0 0
  outer loop
   vertex 100 35 15.699999809265137
   vertex 100 67.5 12
   vertex 100 35.101997375488281 15.704007148742676
  endloop
 endfacet
 facet normal 1 0 0
  outer loop
   vertex 100 2.5 12
   vertex 100 35 15.699999809265137
   vertex 100 34.898002624511719 15.704007148742676
  endloop
 endfacet
 facet normal 1 0 0
  outer loop
   vertex 100 2.5 12
   vertex 100 33.700000762939453 17
   vertex 100 2.5 22
  endloop
 endfacet
 facet normal 1 0 0
  outer loop
   vertex 100 33.700000762939453 17
   vertex 100 2.5 12
   vertex 100 33.704006195068359 16.898002624511719
  endloop
 endfacet
 facet normal 1 0 0
  outer loop
   vertex 100 33.704006195068359 16.898002624511719
   vertex 100 2.5 12
   vertex 100 33.71600341796875 16.796634674072266
  endloop
 endfacet
 facet normal 1 0 0
  outer loop
   vertex 100 33.71600341796875 16.796634674072266
   vertex 100 2.5 12
   vertex 100 33.735919952392578 16.696521759033203
  endloop
 endfacet
 facet normal 1 0 0
  outer loop
   vertex 100 33.735919952392578 16.696521759033203
   vertex 100 2.5 12
   vertex 100 33.763626098632812 16.598278045654297
  endloop
 endfacet
 facet normal 1 0 0
  outer loop
   vertex 100 33.763626098632812 16.598278045654297
   vertex 100 2.5 12
   vertex 100 33.798957824707031 16.502510070800781
  endloop
 endfacet
 facet normal 1 0 0
  outer loop
   vertex 100 33.798957824707031 16.502510070800781
   vertex 100 2.5 12
   vertex 100 33.841690063476562 16.409812927246094
  endloop
 endfacet
 facet normal 1 0 0
  outer loop
   vertex 100 33.841690063476562 16.409812927246094
   vertex 100 2.5 12
   vertex 100 33.891567230224609 16.320751190185547
  endloop
 endfacet
 facet normal 1 0 0
  outer loop
   vertex 100 33.891567230224609 16.320751190185547
   vertex 100 2.5 12
   vertex 100 33.948276519775391 16.235877990722656
  endloop
 endfacet
 facet normal 1 0 0
  outer loop
   vertex 100 33.948276519775391 16.235877990722656
   vertex 100 2.5 12
   vertex 100 34.011470794677734 16.155715942382812
  endloop
 endfacet
 facet normal 1 0 0
  outer loop
   vertex 100 34.011470794677734 16.155715942382812
   vertex 100 2.5 12
   vertex 100 34.080760955810547 16.080760955810547
  endloop
 endfacet
 facet normal 1 0 0
  outer loop
   vertex 100 34.080760955810547 16.080760955810547
   vertex 100 2.5 12
   vertex 100 34.155715942382812 16.011470794677734
  endloop
 endfacet
 facet normal 1 0 0
  outer loop
   vertex 100 34.155715942382812 16.011470794677734
   vertex 100 2.5 12
   vertex 100 34.235877990722656 15.948277473449707
  endloop
 endfacet
 facet normal 1 0 0
  outer loop
   vertex 100 34.235877990722656 15.948277473449707
   vertex 100 2.5 12
   vertex 100 34.320751190185547 15.891567230224609
  endloop
 endfacet
 facet normal 1 0 0
  outer loop
   vertex 100 34.320751190185547 15.891567230224609
   vertex 100 2.5 12
   vertex 100 34.409812927246094 15.841691017150879
  endloop
 endfacet
 facet normal 1 0 0
  outer loop
   vertex 100 34.409812927246094 15.841691017150879
   vertex 100 2.5 12
   vertex 100 34.502510070800781 15.798955917358398
  endloop
 endfacet
 facet normal 1 0 0
  outer loop
   vertex 100 34.502510070800781 15.798955917358398
   vertex 100 2.5 12
   vertex 100 34.598278045654297 15.763626098632812
  endloop
 endfacet
 facet normal 1 0 0
  outer loop
   vertex 100 34.598278045654297 15.763626098632812
   vertex 100 2.5 12
   vertex 100 34.696521759033203 15.735918998718262
  endloop
 endfacet
 facet normal 1 0 0
  outer loop
   vertex 100 35 15.699999809265137
   vertex 100 2.5 12
   vertex 100 67.5 12
  endloop
 endfacet
 facet normal 1 0 0
  outer loop
   vertex 100 34.796634674072266 15.716004371643066
   vertex 100 2.5 12
   vertex 100 34.898002624511719 15.704007148742676
  endloop
 endfacet
 facet normal 1 0 0
  outer loop
   vertex 100 34.696521759033203 15.735918998718262
   vertex 100 2.5 12
   vertex 100 34.796634674072266 15.716004371643066
  endloop
 endfacet
 facet normal -0 0 1
  outer loop
   vertex 100 67.5 22
   vertex 80 65 22
   vertex 100 2.5 22
  endloop
 endfacet
 facet normal 0 0 1
  outer loop
   vertex 100 67.5 22
   vertex 20 65 22
   vertex 80 65 22
  endloop
 endfacet
 facet normal 0 0 1
  outer loop
   vertex 20 65 22
   vertex 0 67.5 22
   vertex 20 5 22
  endloop
 endfacet
 facet normal 0 -0 1
  outer loop
   vertex 0 67.5 22
   vertex 20 65 22
   vertex 100 67.5 22
  endloop
 endfacet
 facet normal 0 0 1
  outer loop
   vertex 80 5 22
   vertex 100 2.5 22
   vertex 80 65 22
  endloop
 endfacet
 facet normal 0 0 1
  outer loop
   vertex 20 5 22
   vertex 100 2.5 22
   vertex 80 5 22
  endloop
 endfacet
 facet normal 0 0 1
  outer loop
   vertex 20 5 22
   vertex 0 2.5 22
   vertex 100 2.5 22
  endloop
 endfacet
 facet normal 0 0 1
  outer loop
   vertex 0 2.5 22
   vertex 20 5 22
   vertex 0 67.5 22
  endloop
 endfacet
 facet normal 0 0 -1
  outer loop
   vertex 100 2.5 12
   vertex 80 5 12
   vertex 100 67.5 12
  endloop
 endfacet
 facet normal 0 0 -1
  outer loop
   vertex 100 2.5 12
   vertex 20 5 12
   vertex 80 5 12
  endloop
 endfacet
 facet normal 0 0 -1
  outer loop
   vertex 20 5 12
   vertex 0 2.5 12
   vertex 20 65 12
  endloop
 endfacet
 facet normal 0 -0 -1
  outer loop
   vertex 0 2.5 12
   vertex 20 5 12
   vertex 100 2.5 12
  endloop
 endfacet
 facet normal 0 0 -1
  outer loop
   vertex 80 65 12
   vertex 100 67.5 12
   vertex 80 5 12
  endloop
 endfacet
 facet normal 0 0 -1
  outer loop
   vertex 20 65 12
   vertex 100 67.5 12
   vertex 80 65 12
  endloop
 endfacet
 facet normal 0 0 -1
  outer loop
   vertex 20 65 12
   vertex 0 67.5 12
   vertex 100 67.5 12
  endloop
 endfacet
 facet normal -0 0 -1
  outer loop
   vertex 0 67.5 12
   vertex 20 65 12
   vertex 0 2.5 12
  endloop
 endfacet
 facet normal -1 0 -0
  outer loop
   vertex 0 2.5 12
   vertex 0 67.5 22
   vertex 0 67.5 12
  endloop
 endfacet
 facet normal -1 0 0
  outer loop
   vertex 0 67.5 22
   vertex 0 2.5 12
   vertex 0 2.5 22
  endloop
 endfacet
 facet normal -0 1 0
  outer loop
   vertex 100 67.5 12
   vertex 0 67.5 22
   vertex 100 67.5 22
  endloop
 endfacet
 facet normal 0 1 0
  outer loop
   vertex 0 67.5 22
   vertex 100 67.5 12
   vertex 0 67.5 12
  endloop
 endfacet
 facet normal -0 -1 0
  outer loop
   vertex 0 2.5 12
   vertex 100 2.5 22
   vertex 0 2.5 22
  endloop
 endfacet
 facet normal 0 -1 0
  outer loop
   vertex 100 2.5 22
   vertex 0 2.5 12
   vertex 100 2.5 12
  endloop
 endfacet
 facet normal -1 0 -0
  outer loop
   vertex 80 5 12
   vertex 80 65 22
   vertex 80 65 12
  endloop
 endfacet
 facet normal -1 0 0
  outer loop
   vertex 80 65 22
   vertex 80 5 12
   vertex 80 5 22
  endloop
 endfacet
 facet normal 1 0 -0
  outer loop
   vertex 20 5 22
   vertex 20 65 12
   vertex 20 65 22
  endloop
 endfacet
 facet normal 1 0 0
  outer loop
   vertex 20 65 12
   vertex 20 5 22
   vertex 20 5 12
  endloop
 endfacet
 facet normal -0 -1 0
  outer loop
   vertex 20 65 12
   vertex 80 65 22
   vertex 20 65 22
  endloop
 endfacet
 facet normal 0 -1 0
  outer loop
   vertex 80 65 22
   vertex 20 65 12
   vertex 80 65 12
  endloop
 endfacet
 facet normal -0 1 0
  outer loop
   vertex 80 5 12
   vertex 20 5 22
   vertex 80 5 22
  endloop
 endfacet
 facet normal 0 1 0
  outer loop
   vertex 20 5 22
   vertex 80 5 12
   vertex 20 5 12
  endloop
 endfacet
 facet normal 0 0.48861560206062421 0.87249916528494953
  outer loop
   vertex 85 34.409812927246094 15.841691017150879
   vertex 100 34.320751190185547 15.891567230224609
   vertex 100 34.409812927246094 15.841691017150879
  endloop
 endfacet
 facet normal 0 0.48861560206062421 0.87249916528494953
  outer loop
   vertex 100 34.320751190185547 15.891567230224609
   vertex 85 34.409812927246094 15.841691017150879
   vertex 85 34.320751190185547 15.891567230224609
  endloop
 endfacet
 facet normal -0 0.908149616701317 0.41864576157564415
  outer loop
   vertex 100 33.841690063476562 16.409812927246094
   vertex 85 33.798957824707031 16.502510070800781
   vertex 100 33.798957824707031 16.502510070800781
  endloop
 endfacet
 facet normal 0 0.908149616701317 0.41864576157564415
  outer loop
   vertex 85 33.798957824707031 16.502510070800781
   vertex 100 33.841690063476562 16.409812927246094
   vertex 85 33.841690063476562 16.409812927246094
  endloop
 endfacet
 facet normal 0 0.99306898828967505 -0.11753290814627734
  outer loop
   vertex 100 33.704006195068359 17.101997375488281
   vertex 85 33.71600341796875 17.203365325927734
   vertex 100 33.71600341796875 17.203365325927734
  endloop
 endfacet
 facet normal 0 0.99306898828967505 -0.11753290814627734
  outer loop
   vertex 85 33.71600341796875 17.203365325927734
   vertex 100 33.704006195068359 17.101997375488281
   vertex 85 33.704006195068359 17.101997375488281
  endloop
 endfacet
 facet normal 0 -0.99922836006877747 0.039277021708141409
  outer loop
   vertex 85 36.295989990234375 16.898002624511719
   vertex 100 36.299999237060547 17
   vertex 85 36.299999237060547 17
  endloop
 endfacet
 facet normal 0 -0.99922836006877747 0.039277021708141409
  outer loop
   vertex 100 36.299999237060547 17
   vertex 85 36.295989990234375 16.898002624511719
   vertex 100 36.295989990234375 16.898002624511719
  endloop
 endfacet
 facet normal 0 -0.41866887794139857 0.90813895998535943
  outer loop
   vertex 85 35.590187072753906 15.841691017150879
   vertex 100 35.497489929199219 15.798955917358398
   vertex 100 35.590187072753906 15.841691017150879
  endloop
 endfacet
 facet normal 0 -0.41866887794139857 0.90813895998535943
  outer loop
   vertex 100 35.497489929199219 15.798955917358398
   vertex 85 35.590187072753906 15.841691017150879
   vertex 85 35.497489929199219 15.798955917358398
  endloop
 endfacet
 facet normal 0 -0.039258364965599313 0.99922909324149867
  outer loop
   vertex 85 35.101997375488281 15.704007148742676
   vertex 100 35 15.699999809265137
   vertex 100 35.101997375488281 15.704007148742676
  endloop
 endfacet
 facet normal 0 -0.039258364965599313 0.99922909324149867
  outer loop
   vertex 100 35 15.699999809265137
   vertex 85 35.101997375488281 15.704007148742676
   vertex 85 35 15.699999809265137
  endloop
 endfacet
 facet normal -0 -0.93818574157077161 -0.34613222085396989
  outer loop
   vertex 85 36.236373901367188 17.401721954345703
   vertex 100 36.201042175292969 17.497488021850586
   vertex 85 36.201042175292969 17.497488021850586
  endloop
 endfacet
 facet normal 0 -0.93818574157077161 -0.34613222085396989
  outer loop
   vertex 100 36.201042175292969 17.497488021850586
   vertex 85 36.236373901367188 17.401721954345703
   vertex 100 36.236373901367188 17.401721954345703
  endloop
 endfacet
 facet normal 0 -0.73432900649740906 0.67879371698368574
  outer loop
   vertex 85 35.919239044189453 16.080760955810547
   vertex 100 35.988525390625 16.155715942382812
   vertex 85 35.988525390625 16.155715942382812
  endloop
 endfacet
 facet normal 0 -0.73432900649740906 0.67879371698368574
  outer loop
   vertex 100 35.988525390625 16.155715942382812
   vertex 85 35.919239044189453 16.080760955810547
   vertex 100 35.919239044189453 16.080760955810547
  endloop
 endfacet
 facet normal 0 0.27142732278054332 -0.96245893857773834
  outer loop
   vertex 85 34.598278045654297 18.236373901367188
   vertex 100 34.696521759033203 18.264080047607422
   vertex 100 34.598278045654297 18.236373901367188
  endloop
 endfacet
 facet normal 0 0.27142732278054332 -0.96245893857773834
  outer loop
   vertex 100 34.696521759033203 18.264080047607422
   vertex 85 34.598278045654297 18.236373901367188
   vertex 85 34.696521759033203 18.264080047607422
  endloop
 endfacet
 facet normal 0 -0.19509908755538627 -0.98078353678834551
  outer loop
   vertex 85 35.203365325927734 18.283994674682617
   vertex 100 35.303478240966797 18.264080047607422
   vertex 100 35.203365325927734 18.283994674682617
  endloop
 endfacet
 facet normal 0 -0.19509908755538627 -0.98078353678834551
  outer loop
   vertex 100 35.303478240966797 18.264080047607422
   vertex 85 35.203365325927734 18.283994674682617
   vertex 85 35.303478240966797 18.264080047607422
  endloop
 endfacet
 facet normal -0 -0.78531878117528786 -0.61909160221518122
  outer loop
   vertex 85 36.051719665527344 17.764120101928711
   vertex 100 35.988525390625 17.844282150268555
   vertex 85 35.988525390625 17.844282150268555
  endloop
 endfacet
 facet normal 0 -0.78531878117528786 -0.61909160221518122
  outer loop
   vertex 100 35.988525390625 17.844282150268555
   vertex 85 36.051719665527344 17.764120101928711
   vertex 100 36.051719665527344 17.764120101928711
  endloop
 endfacet
 facet normal 0 -0.67881386884065431 0.73431037815734501
  outer loop
   vertex 85 35.919239044189453 16.080760955810547
   vertex 100 35.844284057617188 16.011470794677734
   vertex 100 35.919239044189453 16.080760955810547
  endloop
 endfacet
 facet normal 0 -0.67881386884065431 0.73431037815734501
  outer loop
   vertex 100 35.844284057617188 16.011470794677734
   vertex 85 35.919239044189453 16.080760955810547
   vertex 85 35.844284057617188 16.011470794677734
  endloop
 endfacet
 facet normal 0 -0.78531878117528786 0.61909160221518122
  outer loop
   vertex 85 35.988525390625 16.155715942382812
   vertex 100 36.051719665527344 16.235877990722656
   vertex 85 36.051719665527344 16.235877990722656
  endloop
 endfacet
 facet normal 0 -0.78531878117528786 0.61909160221518122
  outer loop
   vertex 100 36.051719665527344 16.235877990722656
   vertex 85 35.988525390625 16.155715942382812
   vertex 100 35.988525390625 16.155715942382812
  endloop
 endfacet
 facet normal 0 0.61908584021854551 0.78532332350497358
  outer loop
   vertex 85 34.235877990722656 15.948277473449707
   vertex 100 34.155715942382812 16.011470794677734
   vertex 100 34.235877990722656 15.948277473449707
  endloop
 endfacet
 facet normal 0 0.61908584021854551 0.78532332350497358
  outer loop
   vertex 100 34.155715942382812 16.011470794677734
   vertex 85 34.235877990722656 15.948277473449707
   vertex 85 34.155715942382812 16.011470794677734
  endloop
 endfacet
 facet normal 0 -0.98077996109743826 0.19511706206712867
  outer loop
   vertex 85 36.264080047607422 16.696521759033203
   vertex 100 36.28399658203125 16.796634674072266
   vertex 85 36.28399658203125 16.796634674072266
  endloop
 endfacet
 facet normal 0 -0.98077996109743826 0.19511706206712867
  outer loop
   vertex 100 36.28399658203125 16.796634674072266
   vertex 85 36.264080047607422 16.696521759033203
   vertex 100 36.264080047607422 16.696521759033203
  endloop
 endfacet
 facet normal 0 0.19509908755538627 0.98078353678834551
  outer loop
   vertex 85 34.796634674072266 15.716004371643066
   vertex 100 34.696521759033203 15.735918998718262
   vertex 100 34.796634674072266 15.716004371643066
  endloop
 endfacet
 facet normal 0 0.19509908755538627 0.98078353678834551
  outer loop
   vertex 100 34.696521759033203 15.735918998718262
   vertex 85 34.796634674072266 15.716004371643066
   vertex 85 34.696521759033203 15.735918998718262
  endloop
 endfacet
 facet normal 0 -0.908149616701317 0.41864576157564415
  outer loop
   vertex 85 36.158309936523438 16.409812927246094
   vertex 100 36.201042175292969 16.502510070800781
   vertex 85 36.201042175292969 16.502510070800781
  endloop
 endfacet
 facet normal 0 -0.908149616701317 0.41864576157564415
  outer loop
   vertex 100 36.201042175292969 16.502510070800781
   vertex 85 36.158309936523438 16.409812927246094
   vertex 100 36.158309936523438 16.409812927246094
  endloop
 endfacet
 facet normal 0 0.67880379310387584 -0.73431969227836358
  outer loop
   vertex 85 34.080760955810547 17.919239044189453
   vertex 100 34.155715942382812 17.988527297973633
   vertex 100 34.080760955810547 17.919239044189453
  endloop
 endfacet
 facet normal 0 0.67880379310387584 -0.73431969227836358
  outer loop
   vertex 100 34.155715942382812 17.988527297973633
   vertex 85 34.080760955810547 17.919239044189453
   vertex 85 34.155715942382812 17.988527297973633
  endloop
 endfacet
 facet normal -0 -0.73433761617569748 -0.67878440278883401
  outer loop
   vertex 85 35.988525390625 17.844282150268555
   vertex 100 35.919239044189453 17.919239044189453
   vertex 85 35.919239044189453 17.919239044189453
  endloop
 endfacet
 facet normal 0 -0.73433761617569748 -0.67878440278883401
  outer loop
   vertex 100 35.919239044189453 17.919239044189453
   vertex 85 35.988525390625 17.844282150268555
   vertex 100 35.988525390625 17.844282150268555
  endloop
 endfacet
 facet normal 0 -0.34610970617497061 0.93819404778088178
  outer loop
   vertex 85 35.497489929199219 15.798955917358398
   vertex 100 35.401721954345703 15.763626098632812
   vertex 100 35.497489929199219 15.798955917358398
  endloop
 endfacet
 facet normal 0 -0.34610970617497061 0.93819404778088178
  outer loop
   vertex 100 35.401721954345703 15.763626098632812
   vertex 85 35.497489929199219 15.798955917358398
   vertex 85 35.401721954345703 15.763626098632812
  endloop
 endfacet
 facet normal 0 0.34610970617497061 0.93819404778088178
  outer loop
   vertex 85 34.598278045654297 15.763626098632812
   vertex 100 34.502510070800781 15.798955917358398
   vertex 100 34.598278045654297 15.763626098632812
  endloop
 endfacet
 facet normal 0 0.34610970617497061 0.93819404778088178
  outer loop
   vertex 100 34.502510070800781 15.798955917358398
   vertex 85 34.598278045654297 15.763626098632812
   vertex 85 34.502510070800781 15.798955917358398
  endloop
 endfacet
 facet normal 0 -0.83145764051459836 0.55558814964854752
  outer loop
   vertex 85 36.051719665527344 16.235877990722656
   vertex 100 36.108432769775391 16.320751190185547
   vertex 85 36.108432769775391 16.320751190185547
  endloop
 endfacet
 facet normal 0 -0.83145764051459836 0.55558814964854752
  outer loop
   vertex 100 36.108432769775391 16.320751190185547
   vertex 85 36.051719665527344 16.235877990722656
   vertex 100 36.051719665527344 16.235877990722656
  endloop
 endfacet
 facet normal 0 0.78531878117528786 -0.61909160221518122
  outer loop
   vertex 100 33.948276519775391 17.764120101928711
   vertex 85 34.011470794677734 17.844282150268555
   vertex 100 34.011470794677734 17.844282150268555
  endloop
 endfacet
 facet normal 0 0.78531878117528786 -0.61909160221518122
  outer loop
   vertex 85 34.011470794677734 17.844282150268555
   vertex 100 33.948276519775391 17.764120101928711
   vertex 85 33.948276519775391 17.764120101928711
  endloop
 endfacet
 facet normal -0 -0.96245893857773834 -0.27142732278054332
  outer loop
   vertex 85 36.264080047607422 17.303478240966797
   vertex 100 36.236373901367188 17.401721954345703
   vertex 85 36.236373901367188 17.401721954345703
  endloop
 endfacet
 facet normal 0 -0.96245893857773834 -0.27142732278054332
  outer loop
   vertex 100 36.236373901367188 17.401721954345703
   vertex 85 36.264080047607422 17.303478240966797
   vertex 100 36.264080047607422 17.303478240966797
  endloop
 endfacet
 facet normal 0 0.41866117257656765 -0.90814251226160181
  outer loop
   vertex 85 34.409812927246094 18.158308029174805
   vertex 100 34.502510070800781 18.201042175292969
   vertex 100 34.409812927246094 18.158308029174805
  endloop
 endfacet
 facet normal 0 0.41866117257656765 -0.90814251226160181
  outer loop
   vertex 100 34.502510070800781 18.201042175292969
   vertex 85 34.409812927246094 18.158308029174805
   vertex 85 34.502510070800781 18.201042175292969
  endloop
 endfacet
 facet normal -0 -0.98077996109743826 -0.19511706206712867
  outer loop
   vertex 85 36.28399658203125 17.203365325927734
   vertex 100 36.264080047607422 17.303478240966797
   vertex 85 36.264080047607422 17.303478240966797
  endloop
 endfacet
 facet normal 0 -0.98077996109743826 -0.19511706206712867
  outer loop
   vertex 100 36.264080047607422 17.303478240966797
   vertex 85 36.28399658203125 17.203365325927734
   vertex 100 36.28399658203125 17.203365325927734
  endloop
 endfacet
 facet normal 0 0.19509908755538627 -0.98078353678834551
  outer loop
   vertex 85 34.696521759033203 18.264080047607422
   vertex 100 34.796634674072266 18.283994674682617
   vertex 100 34.696521759033203 18.264080047607422
  endloop
 endfacet
 facet normal 0 0.19509908755538627 -0.98078353678834551
  outer loop
   vertex 100 34.796634674072266 18.283994674682617
   vertex 85 34.696521759033203 18.264080047607422
   vertex 85 34.796634674072266 18.283994674682617
  endloop
 endfacet
 facet normal 0 -0.11753290814627734 0.99306898828967505
  outer loop
   vertex 85 35.203365325927734 15.716004371643066
   vertex 100 35.101997375488281 15.704007148742676
   vertex 100 35.203365325927734 15.716004371643066
  endloop
 endfacet
 facet normal 0 -0.11753290814627734 0.99306898828967505
  outer loop
   vertex 100 35.101997375488281 15.704007148742676
   vertex 85 35.203365325927734 15.716004371643066
   vertex 85 35.101997375488281 15.704007148742676
  endloop
 endfacet
 facet normal 0 -0.61908584021854551 0.78532332350497358
  outer loop
   vertex 85 35.844284057617188 16.011470794677734
   vertex 100 35.764122009277344 15.948277473449707
   vertex 100 35.844284057617188 16.011470794677734
  endloop
 endfacet
 facet normal 0 -0.61908584021854551 0.78532332350497358
  outer loop
   vertex 100 35.764122009277344 15.948277473449707
   vertex 85 35.844284057617188 16.011470794677734
   vertex 85 35.764122009277344 15.948277473449707
  endloop
 endfacet
 facet normal 0 0.98077996109743826 -0.19511706206712867
  outer loop
   vertex 100 33.71600341796875 17.203365325927734
   vertex 85 33.735919952392578 17.303478240966797
   vertex 100 33.735919952392578 17.303478240966797
  endloop
 endfacet
 facet normal 0 0.98077996109743826 -0.19511706206712867
  outer loop
   vertex 85 33.735919952392578 17.303478240966797
   vertex 100 33.71600341796875 17.203365325927734
   vertex 85 33.71600341796875 17.203365325927734
  endloop
 endfacet
 facet normal 0 0.73431898812843199 -0.67880455484184532
  outer loop
   vertex 100 34.011470794677734 17.844282150268555
   vertex 85 34.080760955810547 17.919239044189453
   vertex 100 34.080760955810547 17.919239044189453
  endloop
 endfacet
 facet normal 0 0.73431898812843199 -0.67880455484184532
  outer loop
   vertex 85 34.080760955810547 17.919239044189453
   vertex 100 34.011470794677734 17.844282150268555
   vertex 85 34.011470794677734 17.844282150268555
  endloop
 endfacet
 facet normal -0 0.87249518231092427 0.48862271421233283
  outer loop
   vertex 100 33.891567230224609 16.320751190185547
   vertex 85 33.841690063476562 16.409812927246094
   vertex 100 33.841690063476562 16.409812927246094
  endloop
 endfacet
 facet normal 0 0.87249518231092427 0.48862271421233283
  outer loop
   vertex 85 33.841690063476562 16.409812927246094
   vertex 100 33.891567230224609 16.320751190185547
   vertex 85 33.891567230224609 16.320751190185547
  endloop
 endfacet
 facet normal 0 -0.93818798018827099 0.34612615305730993
  outer loop
   vertex 85 36.201042175292969 16.502510070800781
   vertex 100 36.236373901367188 16.598278045654297
   vertex 85 36.236373901367188 16.598278045654297
  endloop
 endfacet
 facet normal 0 -0.93818798018827099 0.34612615305730993
  outer loop
   vertex 100 36.236373901367188 16.598278045654297
   vertex 85 36.201042175292969 16.502510070800781
   vertex 100 36.201042175292969 16.502510070800781
  endloop
 endfacet
 facet normal -0 0.99306898828967505 0.11753290814627734
  outer loop
   vertex 100 33.71600341796875 16.796634674072266
   vertex 85 33.704006195068359 16.898002624511719
   vertex 100 33.704006195068359 16.898002624511719
  endloop
 endfacet
 facet normal 0 0.99306898828967505 0.11753290814627734
  outer loop
   vertex 85 33.704006195068359 16.898002624511719
   vertex 100 33.71600341796875 16.796634674072266
   vertex 85 33.71600341796875 16.796634674072266
  endloop
 endfacet
 facet normal 0 0.41866887794139857 0.90813895998535943
  outer loop
   vertex 85 34.502510070800781 15.798955917358398
   vertex 100 34.409812927246094 15.841691017150879
   vertex 100 34.502510070800781 15.798955917358398
  endloop
 endfacet
 facet normal 0 0.41866887794139857 0.90813895998535943
  outer loop
   vertex 100 34.409812927246094 15.841691017150879
   vertex 85 34.502510070800781 15.798955917358398
   vertex 85 34.409812927246094 15.841691017150879
  endloop
 endfacet
 facet normal 0 0.27143597724694152 0.96245649785120035
  outer loop
   vertex 85 34.696521759033203 15.735918998718262
   vertex 100 34.598278045654297 15.763626098632812
   vertex 100 34.696521759033203 15.735918998718262
  endloop
 endfacet
 facet normal 0 0.27143597724694152 0.96245649785120035
  outer loop
   vertex 100 34.598278045654297 15.763626098632812
   vertex 85 34.696521759033203 15.735918998718262
   vertex 85 34.598278045654297 15.763626098632812
  endloop
 endfacet
 facet normal 0 0.55556877288243378 0.8314705879331552
  outer loop
   vertex 85 34.320751190185547 15.891567230224609
   vertex 100 34.235877990722656 15.948277473449707
   vertex 100 34.320751190185547 15.891567230224609
  endloop
 endfacet
 facet normal 0 0.55556877288243378 0.8314705879331552
  outer loop
   vertex 100 34.235877990722656 15.948277473449707
   vertex 85 34.320751190185547 15.891567230224609
   vertex 85 34.235877990722656 15.948277473449707
  endloop
 endfacet
 facet normal 0 0.488608489811514 -0.87250314823736408
  outer loop
   vertex 85 34.320751190185547 18.108432769775391
   vertex 100 34.409812927246094 18.158308029174805
   vertex 100 34.320751190185547 18.108432769775391
  endloop
 endfacet
 facet normal 0 0.488608489811514 -0.87250314823736408
  outer loop
   vertex 100 34.409812927246094 18.158308029174805
   vertex 85 34.320751190185547 18.108432769775391
   vertex 85 34.409812927246094 18.158308029174805
  endloop
 endfacet
 facet normal 0 0.90815289164229451 -0.41863865731886107
  outer loop
   vertex 100 33.798957824707031 17.497488021850586
   vertex 85 33.841690063476562 17.590187072753906
   vertex 100 33.841690063476562 17.590187072753906
  endloop
 endfacet
 facet normal 0 0.90815289164229451 -0.41863865731886107
  outer loop
   vertex 85 33.841690063476562 17.590187072753906
   vertex 100 33.798957824707031 17.497488021850586
   vertex 85 33.798957824707031 17.497488021850586
  endloop
 endfacet
 facet normal 0 -0.55557523190504909 -0.83146627213234026
  outer loop
   vertex 85 35.679248809814453 18.108432769775391
   vertex 100 35.764122009277344 18.051721572875977
   vertex 100 35.679248809814453 18.108432769775391
  endloop
 endfacet
 facet normal 0 -0.55557523190504909 -0.83146627213234026
  outer loop
   vertex 100 35.764122009277344 18.051721572875977
   vertex 85 35.679248809814453 18.108432769775391
   vertex 85 35.764122009277344 18.051721572875977
  endloop
 endfacet
 facet normal 0 0.11753290814627734 0.99306898828967505
  outer loop
   vertex 85 34.898002624511719 15.704007148742676
   vertex 100 34.796634674072266 15.716004371643066
   vertex 100 34.898002624511719 15.704007148742676
  endloop
 endfacet
 facet normal 0 0.11753290814627734 0.99306898828967505
  outer loop
   vertex 100 34.796634674072266 15.716004371643066
   vertex 85 34.898002624511719 15.704007148742676
   vertex 85 34.796634674072266 15.716004371643066
  endloop
 endfacet
 facet normal 0 0.34612615305730993 -0.93818798018827099
  outer loop
   vertex 85 34.502510070800781 18.201042175292969
   vertex 100 34.598278045654297 18.236373901367188
   vertex 100 34.502510070800781 18.201042175292969
  endloop
 endfacet
 facet normal 0 0.34612615305730993 -0.93818798018827099
  outer loop
   vertex 100 34.598278045654297 18.236373901367188
   vertex 85 34.502510070800781 18.201042175292969
   vertex 85 34.598278045654297 18.236373901367188
  endloop
 endfacet
 facet normal 0 -0.87249518231092427 0.48862271421233283
  outer loop
   vertex 85 36.108432769775391 16.320751190185547
   vertex 100 36.158309936523438 16.409812927246094
   vertex 85 36.158309936523438 16.409812927246094
  endloop
 endfacet
 facet normal 0 -0.87249518231092427 0.48862271421233283
  outer loop
   vertex 100 36.158309936523438 16.409812927246094
   vertex 85 36.108432769775391 16.320751190185547
   vertex 100 36.108432769775391 16.320751190185547
  endloop
 endfacet
 facet normal 0 -0.488608489811514 -0.87250314823736408
  outer loop
   vertex 85 35.590187072753906 18.158308029174805
   vertex 100 35.679248809814453 18.108432769775391
   vertex 100 35.590187072753906 18.158308029174805
  endloop
 endfacet
 facet normal 0 -0.488608489811514 -0.87250314823736408
  outer loop
   vertex 100 35.679248809814453 18.108432769775391
   vertex 85 35.590187072753906 18.158308029174805
   vertex 85 35.679248809814453 18.108432769775391
  endloop
 endfacet
 facet normal 0 -0.48861560206062421 0.87249916528494953
  outer loop
   vertex 85 35.679248809814453 15.891567230224609
   vertex 100 35.590187072753906 15.841691017150879
   vertex 100 35.679248809814453 15.891567230224609
  endloop
 endfacet
 facet normal 0 -0.48861560206062421 0.87249916528494953
  outer loop
   vertex 100 35.590187072753906 15.841691017150879
   vertex 85 35.679248809814453 15.891567230224609
   vertex 85 35.590187072753906 15.841691017150879
  endloop
 endfacet
 facet normal -0 -0.83145187264138209 -0.55559678138119095
  outer loop
   vertex 85 36.108432769775391 17.679248809814453
   vertex 100 36.051719665527344 17.764120101928711
   vertex 85 36.051719665527344 17.764120101928711
  endloop
 endfacet
 facet normal 0 -0.83145187264138209 -0.55559678138119095
  outer loop
   vertex 100 36.051719665527344 17.764120101928711
   vertex 85 36.108432769775391 17.679248809814453
   vertex 100 36.108432769775391 17.679248809814453
  endloop
 endfacet
 facet normal 0 0.67881386884065431 0.73431037815734501
  outer loop
   vertex 85 34.155715942382812 16.011470794677734
   vertex 100 34.080760955810547 16.080760955810547
   vertex 100 34.155715942382812 16.011470794677734
  endloop
 endfacet
 facet normal 0 0.67881386884065431 0.73431037815734501
  outer loop
   vertex 100 34.080760955810547 16.080760955810547
   vertex 85 34.155715942382812 16.011470794677734
   vertex 85 34.080760955810547 16.080760955810547
  endloop
 endfacet
 facet normal 0 -0.67880379310387584 -0.73431969227836358
  outer loop
   vertex 85 35.844284057617188 17.988527297973633
   vertex 100 35.919239044189453 17.919239044189453
   vertex 100 35.844284057617188 17.988527297973633
  endloop
 endfacet
 facet normal 0 -0.67880379310387584 -0.73431969227836358
  outer loop
   vertex 100 35.919239044189453 17.919239044189453
   vertex 85 35.844284057617188 17.988527297973633
   vertex 85 35.919239044189453 17.919239044189453
  endloop
 endfacet
 facet normal -0 -0.87249518231092427 -0.48862271421233283
  outer loop
   vertex 85 36.158309936523438 17.590187072753906
   vertex 100 36.108432769775391 17.679248809814453
   vertex 85 36.108432769775391 17.679248809814453
  endloop
 endfacet
 facet normal 0 -0.87249518231092427 -0.48862271421233283
  outer loop
   vertex 100 36.108432769775391 17.679248809814453
   vertex 85 36.158309936523438 17.590187072753906
   vertex 100 36.158309936523438 17.590187072753906
  endloop
 endfacet
 facet normal 0 0.99922982606695221 -0.039239708181999393
  outer loop
   vertex 100 33.700000762939453 17
   vertex 85 33.704006195068359 17.101997375488281
   vertex 100 33.704006195068359 17.101997375488281
  endloop
 endfacet
 facet normal 0 0.99922982606695221 -0.039239708181999393
  outer loop
   vertex 85 33.704006195068359 17.101997375488281
   vertex 100 33.700000762939453 17
   vertex 85 33.700000762939453 17
  endloop
 endfacet
 facet normal -0 0.96245893857773834 0.27142732278054332
  outer loop
   vertex 100 33.763626098632812 16.598278045654297
   vertex 85 33.735919952392578 16.696521759033203
   vertex 100 33.735919952392578 16.696521759033203
  endloop
 endfacet
 facet normal 0 0.96245893857773834 0.27142732278054332
  outer loop
   vertex 85 33.735919952392578 16.696521759033203
   vertex 100 33.763626098632812 16.598278045654297
   vertex 85 33.763626098632812 16.598278045654297
  endloop
 endfacet
 facet normal -0 -0.90815289164229451 -0.41863865731886107
  outer loop
   vertex 85 36.201042175292969 17.497488021850586
   vertex 100 36.158309936523438 17.590187072753906
   vertex 85 36.158309936523438 17.590187072753906
  endloop
 endfacet
 facet normal 0 -0.90815289164229451 -0.41863865731886107
  outer loop
   vertex 100 36.158309936523438 17.590187072753906
   vertex 85 36.201042175292969 17.497488021850586
   vertex 100 36.201042175292969 17.497488021850586
  endloop
 endfacet
 facet normal 0 0.11753290814627734 -0.99306898828967505
  outer loop
   vertex 85 34.796634674072266 18.283994674682617
   vertex 100 34.898002624511719 18.295991897583008
   vertex 100 34.796634674072266 18.283994674682617
  endloop
 endfacet
 facet normal 0 0.11753290814627734 -0.99306898828967505
  outer loop
   vertex 100 34.898002624511719 18.295991897583008
   vertex 85 34.796634674072266 18.283994674682617
   vertex 85 34.898002624511719 18.295991897583008
  endloop
 endfacet
 facet normal 0 0.93818574157077161 -0.34613222085396989
  outer loop
   vertex 100 33.763626098632812 17.401721954345703
   vertex 85 33.798957824707031 17.497488021850586
   vertex 100 33.798957824707031 17.497488021850586
  endloop
 endfacet
 facet normal 0 0.93818574157077161 -0.34613222085396989
  outer loop
   vertex 85 33.798957824707031 17.497488021850586
   vertex 100 33.763626098632812 17.401721954345703
   vertex 85 33.763626098632812 17.401721954345703
  endloop
 endfacet
 facet normal -0 -0.99307334954532023 -0.11749605279684217
  outer loop
   vertex 85 36.295989990234375 17.101997375488281
   vertex 100 36.28399658203125 17.203365325927734
   vertex 85 36.28399658203125 17.203365325927734
  endloop
 endfacet
 facet normal 0 -0.99307334954532023 -0.11749605279684217
  outer loop
   vertex 100 36.28399658203125 17.203365325927734
   vertex 85 36.295989990234375 17.101997375488281
   vertex 100 36.295989990234375 17.101997375488281
  endloop
 endfacet
 facet normal -0 0.83147490372859723 0.55556231375923981
  outer loop
   vertex 100 33.948276519775391 16.235877990722656
   vertex 85 33.891567230224609 16.320751190185547
   vertex 100 33.891567230224609 16.320751190185547
  endloop
 endfacet
 facet normal 0 0.83147490372859723 0.55556231375923981
  outer loop
   vertex 85 33.891567230224609 16.320751190185547
   vertex 100 33.948276519775391 16.235877990722656
   vertex 85 33.948276519775391 16.235877990722656
  endloop
 endfacet
 facet normal -0 0.93818798018827099 0.34612615305730993
  outer loop
   vertex 100 33.798957824707031 16.502510070800781
   vertex 85 33.763626098632812 16.598278045654297
   vertex 100 33.763626098632812 16.598278045654297
  endloop
 endfacet
 facet normal 0 0.93818798018827099 0.34612615305730993
  outer loop
   vertex 85 33.763626098632812 16.598278045654297
   vertex 100 33.798957824707031 16.502510070800781
   vertex 85 33.798957824707031 16.502510070800781
  endloop
 endfacet
 facet normal 0 -0.41866117257656765 -0.90814251226160181
  outer loop
   vertex 85 35.497489929199219 18.201042175292969
   vertex 100 35.590187072753906 18.158308029174805
   vertex 100 35.497489929199219 18.201042175292969
  endloop
 endfacet
 facet normal 0 -0.41866117257656765 -0.90814251226160181
  outer loop
   vertex 100 35.590187072753906 18.158308029174805
   vertex 85 35.497489929199219 18.201042175292969
   vertex 85 35.590187072753906 18.158308029174805
  endloop
 endfacet
 facet normal -0 0.99922982606695221 0.039239708181999393
  outer loop
   vertex 100 33.704006195068359 16.898002624511719
   vertex 85 33.700000762939453 17
   vertex 100 33.700000762939453 17
  endloop
 endfacet
 facet normal 0 0.99922982606695221 0.039239708181999393
  outer loop
   vertex 85 33.700000762939453 17
   vertex 100 33.704006195068359 16.898002624511719
   vertex 85 33.704006195068359 16.898002624511719
  endloop
 endfacet
 facet normal -0 -0.99922836006877747 -0.039277021708141409
  outer loop
   vertex 85 36.299999237060547 17
   vertex 100 36.295989990234375 17.101997375488281
   vertex 85 36.295989990234375 17.101997375488281
  endloop
 endfacet
 facet normal 0 -0.99922836006877747 -0.039277021708141409
  outer loop
   vertex 100 36.295989990234375 17.101997375488281
   vertex 85 36.299999237060547 17
   vertex 100 36.299999237060547 17
  endloop
 endfacet
 facet normal 0 -0.27143597724694152 0.96245649785120035
  outer loop
   vertex 85 35.401721954345703 15.763626098632812
   vertex 100 35.303478240966797 15.735918998718262
   vertex 100 35.401721954345703 15.763626098632812
  endloop
 endfacet
 facet normal 0 -0.27143597724694152 0.96245649785120035
  outer loop
   vertex 100 35.303478240966797 15.735918998718262
   vertex 85 35.401721954345703 15.763626098632812
   vertex 85 35.303478240966797 15.735918998718262
  endloop
 endfacet
 facet normal 0 0.039258364965599313 0.99922909324149867
  outer loop
   vertex 85 35 15.699999809265137
   vertex 100 34.898002624511719 15.704007148742676
   vertex 100 35 15.699999809265137
  endloop
 endfacet
 facet normal 0 0.039258364965599313 0.99922909324149867
  outer loop
   vertex 100 34.898002624511719 15.704007148742676
   vertex 85 35 15.699999809265137
   vertex 85 34.898002624511719 15.704007148742676
  endloop
 endfacet
 facet normal 0 -0.96245893857773834 0.27142732278054332
  outer loop
   vertex 85 36.236373901367188 16.598278045654297
   vertex 100 36.264080047607422 16.696521759033203
   vertex 85 36.264080047607422 16.696521759033203
  endloop
 endfacet
 facet normal 0 -0.96245893857773834 0.27142732278054332
  outer loop
   vertex 100 36.264080047607422 16.696521759033203
   vertex 85 36.236373901367188 16.598278045654297
   vertex 100 36.236373901367188 16.598278045654297
  endloop
 endfacet
 facet normal 0 -0.27142732278054332 -0.96245893857773834
  outer loop
   vertex 85 35.303478240966797 18.264080047607422
   vertex 100 35.401721954345703 18.236373901367188
   vertex 100 35.303478240966797 18.264080047607422
  endloop
 endfacet
 facet normal 0 -0.27142732278054332 -0.96245893857773834
  outer loop
   vertex 100 35.401721954345703 18.236373901367188
   vertex 85 35.303478240966797 18.264080047607422
   vertex 85 35.401721954345703 18.236373901367188
  endloop
 endfacet
 facet normal 0 0.61909160221518122 -0.78531878117528786
  outer loop
   vertex 85 34.155715942382812 17.988527297973633
   vertex 100 34.235877990722656 18.051721572875977
   vertex 100 34.155715942382812 17.988527297973633
  endloop
 endfacet
 facet normal 0 0.61909160221518122 -0.78531878117528786
  outer loop
   vertex 100 34.235877990722656 18.051721572875977
   vertex 85 34.155715942382812 17.988527297973633
   vertex 85 34.235877990722656 18.051721572875977
  endloop
 endfacet
 facet normal 0 -0.55556877288243378 0.8314705879331552
  outer loop
   vertex 85 35.764122009277344 15.948277473449707
   vertex 100 35.679248809814453 15.891567230224609
   vertex 100 35.764122009277344 15.948277473449707
  endloop
 endfacet
 facet normal 0 -0.55556877288243378 0.8314705879331552
  outer loop
   vertex 100 35.679248809814453 15.891567230224609
   vertex 85 35.764122009277344 15.948277473449707
   vertex 85 35.679248809814453 15.891567230224609
  endloop
 endfacet
 facet normal 0 -0.19509908755538627 0.98078353678834551
  outer loop
   vertex 85 35.303478240966797 15.735918998718262
   vertex 100 35.203365325927734 15.716004371643066
   vertex 100 35.303478240966797 15.735918998718262
  endloop
 endfacet
 facet normal 0 -0.19509908755538627 0.98078353678834551
  outer loop
   vertex 100 35.203365325927734 15.716004371643066
   vertex 85 35.303478240966797 15.735918998718262
   vertex 85 35.203365325927734 15.716004371643066
  endloop
 endfacet
 facet normal 1 0 0
  outer loop
   vertex 85 36.295989990234375 17.101997375488281
   vertex 85 36.295989990234375 16.898002624511719
   vertex 85 36.299999237060547 17
  endloop
 endfacet
 facet normal 1 0 -0
  outer loop
   vertex 85 36.28399658203125 17.203365325927734
   vertex 85 36.295989990234375 16.898002624511719
   vertex 85 36.295989990234375 17.101997375488281
  endloop
 endfacet
 facet normal 1 0 0
  outer loop
   vertex 85 36.28399658203125 17.203365325927734
   vertex 85 36.28399658203125 16.796634674072266
   vertex 85 36.295989990234375 16.898002624511719
  endloop
 endfacet
 facet normal 1 0 -0
  outer loop
   vertex 85 36.264080047607422 17.303478240966797
   vertex 85 36.28399658203125 16.796634674072266
   vertex 85 36.28399658203125 17.203365325927734
  endloop
 endfacet
 facet normal 1 0 0
  outer loop
   vertex 85 36.264080047607422 17.303478240966797
   vertex 85 36.264080047607422 16.696521759033203
   vertex 85 36.28399658203125 16.796634674072266
  endloop
 endfacet
 facet normal 1 0 -0
  outer loop
   vertex 85 36.236373901367188 17.401721954345703
   vertex 85 36.264080047607422 16.696521759033203
   vertex 85 36.264080047607422 17.303478240966797
  endloop
 endfacet
 facet normal 1 0 0
  outer loop
   vertex 85 36.236373901367188 17.401721954345703
   vertex 85 36.236373901367188 16.598278045654297
   vertex 85 36.264080047607422 16.696521759033203
  endloop
 endfacet
 facet normal 1 0 -0
  outer loop
   vertex 85 36.201042175292969 17.497488021850586
   vertex 85 36.236373901367188 16.598278045654297
   vertex 85 36.236373901367188 17.401721954345703
  endloop
 endfacet
 facet normal 1 0 0
  outer loop
   vertex 85 36.201042175292969 17.497488021850586
   vertex 85 36.201042175292969 16.502510070800781
   vertex 85 36.236373901367188 16.598278045654297
  endloop
 endfacet
 facet normal 1 0 -0
  outer loop
   vertex 85 36.158309936523438 17.590187072753906
   vertex 85 36.201042175292969 16.502510070800781
   vertex 85 36.201042175292969 17.497488021850586
  endloop
 endfacet
 facet normal 1 0 0
  outer loop
   vertex 85 36.158309936523438 17.590187072753906
   vertex 85 36.158309936523438 16.409812927246094
   vertex 85 36.201042175292969 16.502510070800781
  endloop
 endfacet
 facet normal 1 0 -0
  outer loop
   vertex 85 36.108432769775391 17.679248809814453
   vertex 85 36.158309936523438 16.409812927246094
   vertex 85 36.158309936523438 17.590187072753906
  endloop
 endfacet
 facet normal 1 0 0
  outer loop
   vertex 85 36.108432769775391 17.679248809814453
   vertex 85 36.108432769775391 16.320751190185547
   vertex 85 36.158309936523438 16.409812927246094
  endloop
 endfacet
 facet normal 1 0 -0
  outer loop
   vertex 85 36.051719665527344 17.764120101928711
   vertex 85 36.108432769775391 16.320751190185547
   vertex 85 36.108432769775391 17.679248809814453
  endloop
 endfacet
 facet normal 1 0 0
  outer loop
   vertex 85 36.051719665527344 17.764120101928711
   vertex 85 36.051719665527344 16.235877990722656
   vertex 85 36.108432769775391 16.320751190185547
  endloop
 endfacet
 facet normal 1 0 -0
  outer loop
   vertex 85 35.988525390625 17.844282150268555
   vertex 85 36.051719665527344 16.235877990722656
   vertex 85 36.051719665527344 17.764120101928711
  endloop
 endfacet
 facet normal 1 0 0
  outer loop
   vertex 85 35.988525390625 17.844282150268555
   vertex 85 35.988525390625 16.155715942382812
   vertex 85 36.051719665527344 16.235877990722656
  endloop
 endfacet
 facet normal 1 0 -0
  outer loop
   vertex 85 35.919239044189453 17.919239044189453
   vertex 85 35.988525390625 16.155715942382812
   vertex 85 35.988525390625 17.844282150268555
  endloop
 endfacet
 facet normal 1 0 0
  outer loop
   vertex 85 35.919239044189453 17.919239044189453
   vertex 85 35.919239044189453 16.080760955810547
   vertex 85 35.988525390625 16.155715942382812
  endloop
 endfacet
 facet normal 1 0 -0
  outer loop
   vertex 85 35.844284057617188 17.988527297973633
   vertex 85 35.919239044189453 16.080760955810547
   vertex 85 35.919239044189453 17.919239044189453
  endloop
 endfacet
 facet normal 1 0 0
  outer loop
   vertex 85 35.844284057617188 17.988527297973633
   vertex 85 35.844284057617188 16.011470794677734
   vertex 85 35.919239044189453 16.080760955810547
  endloop
 endfacet
 facet normal 1 0 -0
  outer loop
   vertex 85 35.764122009277344 18.051721572875977
   vertex 85 35.844284057617188 16.011470794677734
   vertex 85 35.844284057617188 17.988527297973633
  endloop
 endfacet
 facet normal 1 0 0
  outer loop
   vertex 85 35.764122009277344 18.051721572875977
   vertex 85 35.764122009277344 15.948277473449707
   vertex 85 35.844284057617188 16.011470794677734
  endloop
 endfacet
 facet normal 1 0 -0
  outer loop
   vertex 85 35.679248809814453 18.108432769775391
   vertex 85 35.764122009277344 15.948277473449707
   vertex 85 35.764122009277344 18.051721572875977
  endloop
 endfacet
 facet normal 1 0 0
  outer loop
   vertex 85 35.679248809814453 18.108432769775391
   vertex 85 35.679248809814453 15.891567230224609
   vertex 85 35.764122009277344 15.948277473449707
  endloop
 endfacet
 facet normal 1 0 -0
  outer loop
   vertex 85 35.590187072753906 18.158308029174805
   vertex 85 35.679248809814453 15.891567230224609
   vertex 85 35.679248809814453 18.108432769775391
  endloop
 endfacet
 facet normal 1 0 0
  outer loop
   vertex 85 35.590187072753906 18.158308029174805
   vertex 85 35.590187072753906 15.841691017150879
   vertex 85 35.679248809814453 15.891567230224609
  endloop
 endfacet
 facet normal 1 0 -0
  outer loop
   vertex 85 35.497489929199219 18.201042175292969
   vertex 85 35.590187072753906 15.841691017150879
   vertex 85 35.590187072753906 18.158308029174805
  endloop
 endfacet
 facet normal 1 0 0
  outer loop
   vertex 85 35.497489929199219 18.201042175292969
   vertex 85 35.497489929199219 15.798955917358398
   vertex 85 35.590187072753906 15.841691017150879
  endloop
 endfacet
 facet normal 1 0 -0
  outer loop
   vertex 85 35.401721954345703 18.236373901367188
   vertex 85 35.497489929199219 15.798955917358398
   vertex 85 35.497489929199219 18.201042175292969
  endloop
 endfacet
 facet normal 1 0 0
  outer loop
   vertex 85 35.401721954345703 18.236373901367188
   vertex 85 35.401721954345703 15.763626098632812
   vertex 85 35.497489929199219 15.798955917358398
  endloop
 endfacet
 facet normal 1 0 -0
  outer loop
   vertex 85 35.303478240966797 18.264080047607422
   vertex 85 35.401721954345703 15.763626098632812
   vertex 85 35.401721954345703 18.236373901367188
  endloop
 endfacet
 facet normal 1 0 0
  outer loop
   vertex 85 35.303478240966797 18.264080047607422
   vertex 85 35.303478240966797 15.735918998718262
   vertex 85 35.401721954345703 15.763626098632812
  endloop
 endfacet
 facet normal 1 0 -0
  outer loop
   vertex 85 35.203365325927734 18.283994674682617
   vertex 85 35.303478240966797 15.735918998718262
   vertex 85 35.303478240966797 18.264080047607422
  endloop
 endfacet
 facet normal 1 0 0
  outer loop
   vertex 85 35.203365325927734 18.283994674682617
   vertex 85 35.203365325927734 15.716004371643066
   vertex 85 35.303478240966797 15.735918998718262
  endloop
 endfacet
 facet normal 1 0 -0
  outer loop
   vertex 85 35.101997375488281 18.295991897583008
   vertex 85 35.203365325927734 15.716004371643066
   vertex 85 35.203365325927734 18.283994674682617
  endloop
 endfacet
 facet normal 1 0 0
  outer loop
   vertex 85 35.101997375488281 18.295991897583008
   vertex 85 35.101997375488281 15.704007148742676
   vertex 85 35.203365325927734 15.716004371643066
  endloop
 endfacet
 facet normal 1 0 -0
  outer loop
   vertex 85 35 18.299999237060547
   vertex 85 35.101997375488281 15.704007148742676
   vertex 85 35.101997375488281 18.295991897583008
  endloop
 endfacet
 facet normal 1 0 0
  outer loop
   vertex 85 35 18.299999237060547
   vertex 85 35 15.699999809265137
   vertex 85 35.101997375488281 15.704007148742676
  endloop
 endfacet
 facet normal 1 0 -0
  outer loop
   vertex 85 34.898002624511719 18.295991897583008
   vertex 85 35 15.699999809265137
   vertex 85 35 18.299999237060547
  endloop
 endfacet
 facet normal 1 -0 0
  outer loop
   vertex 85 34.898002624511719 18.295991897583008
   vertex 85 34.898002624511719 15.704007148742676
   vertex 85 35 15.699999809265137
  endloop
 endfacet
 facet normal 1 0 -0
  outer loop
   vertex 85 34.796634674072266 18.283994674682617
   vertex 85 34.898002624511719 15.704007148742676
   vertex 85 34.898002624511719 18.295991897583008
  endloop
 endfacet
 facet normal 1 -0 0
  outer loop
   vertex 85 34.796634674072266 18.283994674682617
   vertex 85 34.796634674072266 15.716004371643066
   vertex 85 34.898002624511719 15.704007148742676
  endloop
 endfacet
 facet normal 1 0 -0
  outer loop
   vertex 85 34.696521759033203 18.264080047607422
   vertex 85 34.796634674072266 15.716004371643066
   vertex 85 34.796634674072266 18.283994674682617
  endloop
 endfacet
 facet normal 1 -0 0
  outer loop
   vertex 85 34.696521759033203 18.264080047607422
   vertex 85 34.696521759033203 15.735918998718262
   vertex 85 34.796634674072266 15.716004371643066
  endloop
 endfacet
 facet normal 1 0 -0
  outer loop
   vertex 85 34.598278045654297 18.236373901367188
   vertex 85 34.696521759033203 15.735918998718262
   vertex 85 34.696521759033203 18.264080047607422
  endloop
 endfacet
 facet normal 1 -0 0
  outer loop
   vertex 85 34.598278045654297 18.236373901367188
   vertex 85 34.598278045654297 15.763626098632812
   vertex 85 34.696521759033203 15.735918998718262
  endloop
 endfacet
 facet normal 1 0 -0
  outer loop
   vertex 85 34.502510070800781 18.201042175292969
   vertex 85 34.598278045654297 15.763626098632812
   vertex 85 34.598278045654297 18.236373901367188
  endloop
 endfacet
 facet normal 1 -0 0
  outer loop
   vertex 85 34.502510070800781 18.201042175292969
   vertex 85 34.502510070800781 15.798955917358398
   vertex 85 34.598278045654297 15.763626098632812
  endloop
 endfacet
 facet normal 1 0 -0
  outer loop
   vertex 85 34.409812927246094 18.158308029174805
   vertex 85 34.502510070800781 15.798955917358398
   vertex 85 34.502510070800781 18.201042175292969
  endloop
 endfacet
 facet normal 1 -0 0
  outer loop
   vertex 85 34.409812927246094 18.158308029174805
   vertex 85 34.409812927246094 15.841691017150879
   vertex 85 34.502510070800781 15.798955917358398
  endloop
 endfacet
 facet normal 1 0 -0
  outer loop
   vertex 85 34.320751190185547 18.108432769775391
   vertex 85 34.409812927246094 15.841691017150879
   vertex 85 34.409812927246094 18.158308029174805
  endloop
 endfacet
 facet normal 1 -0 0
  outer loop
   vertex 85 34.320751190185547 18.108432769775391
   vertex 85 34.320751190185547 15.891567230224609
   vertex 85 34.409812927246094 15.841691017150879
  endloop
 endfacet
 facet normal 1 0 -0
  outer loop
   vertex 85 34.235877990722656 18.051721572875977
   vertex 85 34.320751190185547 15.891567230224609
   vertex 85 34.320751190185547 18.108432769775391
  endloop
 endfacet
 facet normal 1 -0 0
  outer loop
   vertex 85 34.235877990722656 18.051721572875977
   vertex 85 34.235877990722656 15.948277473449707
   vertex 85 34.320751190185547 15.891567230224609
  endloop
 endfacet
 facet normal 1 0 -0
  outer loop
   vertex 85 34.155715942382812 17.988527297973633
   vertex 85 34.235877990722656 15.948277473449707
   vertex 85 34.235877990722656 18.051721572875977
  endloop
 endfacet
 facet normal 1 -0 0
  outer loop
   vertex 85 34.155715942382812 17.988527297973633
   vertex 85 34.155715942382812 16.011470794677734
   vertex 85 34.235877990722656 15.948277473449707
  endloop
 endfacet
 facet normal 1 0 -0
  outer loop
   vertex 85 34.080760955810547 17.919239044189453
   vertex 85 34.155715942382812 16.011470794677734
   vertex 85 34.155715942382812 17.988527297973633
  endloop
 endfacet
 facet normal 1 -0 0
  outer loop
   vertex 85 34.080760955810547 17.919239044189453
   vertex 85 34.080760955810547 16.080760955810547
   vertex 85 34.155715942382812 16.011470794677734
  endloop
 endfacet
 facet normal 1 0 -0
  outer loop
   vertex 85 34.011470794677734 17.844282150268555
   vertex 85 34.080760955810547 16.080760955810547
   vertex 85 34.080760955810547 17.919239044189453
  endloop
 endfacet
 facet normal 1 -0 0
  outer loop
   vertex 85 34.011470794677734 17.844282150268555
   vertex 85 34.011470794677734 16.155715942382812
   vertex 85 34.080760955810547 16.080760955810547
  endloop
 endfacet
 facet normal 1 0 -0
  outer loop
   vertex 85 33.948276519775391 17.764120101928711
   vertex 85 34.011470794677734 16.155715942382812
   vertex 85 34.011470794677734 17.844282150268555
  endloop
 endfacet
 facet normal 1 -0 0
  outer loop
   vertex 85 33.948276519775391 17.764120101928711
   vertex 85 33.948276519775391 16.235877990722656
   vertex 85 34.011470794677734 16.155715942382812
  endloop
 endfacet
 facet normal 1 0 -0
  outer loop
   vertex 85 33.891567230224609 17.679248809814453
   vertex 85 33.948276519775391 16.235877990722656
   vertex 85 33.948276519775391 17.764120101928711
  endloop
 endfacet
 facet normal 1 -0 0
  outer loop
   vertex 85 33.891567230224609 17.679248809814453
   vertex 85 33.891567230224609 16.320751190185547
   vertex 85 33.948276519775391 16.235877990722656
  endloop
 endfacet
 facet normal 1 0 -0
  outer loop
   vertex 85 33.841690063476562 17.590187072753906
   vertex 85 33.891567230224609 16.320751190185547
   vertex 85 33.891567230224609 17.679248809814453
  endloop
 endfacet
 facet normal 1 -0 0
  outer loop
   vertex 85 33.841690063476562 17.590187072753906
   vertex 85 33.841690063476562 16.409812927246094
   vertex 85 33.891567230224609 16.320751190185547
  endloop
 endfacet
 facet normal 1 0 -0
  outer loop
   vertex 85 33.798957824707031 17.497488021850586
   vertex 85 33.841690063476562 16.409812927246094
   vertex 85 33.841690063476562 17.590187072753906
  endloop
 endfacet
 facet normal 1 -0 0
  outer loop
   vertex 85 33.798957824707031 17.497488021850586
   vertex 85 33.798957824707031 16.502510070800781
   vertex 85 33.841690063476562 16.409812927246094
  endloop
 endfacet
 facet normal 1 0 -0
  outer loop
   vertex 85 33.763626098632812 17.401721954345703
   vertex 85 33.798957824707031 16.502510070800781
   vertex 85 33.798957824707031 17.497488021850586
  endloop
 endfacet
 facet normal 1 -0 0
  outer loop
   vertex 85 33.763626098632812 17.401721954345703
   vertex 85 33.763626098632812 16.598278045654297
   vertex 85 33.798957824707031 16.502510070800781
  endloop
 endfacet
 facet normal 1 0 -0
  outer loop
   vertex 85 33.735919952392578 17.303478240966797
   vertex 85 33.763626098632812 16.598278045654297
   vertex 85 33.763626098632812 17.401721954345703
  endloop
 endfacet
 facet normal 1 -0 0
  outer loop
   vertex 85 33.735919952392578 17.303478240966797
   vertex 85 33.735919952392578 16.696521759033203
   vertex 85 33.763626098632812 16.598278045654297
  endloop
 endfacet
 facet normal 1 0 -0
  outer loop
   vertex 85 33.71600341796875 17.203365325927734
   vertex 85 33.735919952392578 16.696521759033203
   vertex 85 33.735919952392578 17.303478240966797
  endloop
 endfacet
 facet normal 1 -0 0
  outer loop
   vertex 85 33.71600341796875 17.203365325927734
   vertex 85 33.71600341796875 16.796634674072266
   vertex 85 33.735919952392578 16.696521759033203
  endloop
 endfacet
 facet normal 1 0 -0
  outer loop
   vertex 85 33.704006195068359 17.101997375488281
   vertex 85 33.71600341796875 16.796634674072266
   vertex 85 33.71600341796875 17.203365325927734
  endloop
 endfacet
 facet normal 1 -0 0
  outer loop
   vertex 85 33.704006195068359 17.101997375488281
   vertex 85 33.704006195068359 16.898002624511719
   vertex 85 33.71600341796875 16.796634674072266
  endloop
 endfacet
 facet normal 1 0 0
  outer loop
   vertex 85 33.704006195068359 16.898002624511719
   vertex 85 33.704006195068359 17.101997375488281
   vertex 85 33.700000762939453 17
  endloop
 endfacet
 facet normal 0 0.83146913627205177 -0.55557094544892116
  outer loop
   vertex 100 33.891567230224609 17.679248809814453
   vertex 85 33.948276519775391 17.764120101928711
   vertex 100 33.948276519775391 17.764120101928711
  endloop
 endfacet
 facet normal 0 0.83146913627205177 -0.55557094544892116
  outer loop
   vertex 85 33.948276519775391 17.764120101928711
   vertex 100 33.891567230224609 17.679248809814453
   vertex 85 33.891567230224609 17.679248809814453
  endloop
 endfacet
 facet normal -0 0.78531878117528786 0.61909160221518122
  outer loop
   vertex 100 34.011470794677734 16.155715942382812
   vertex 85 33.948276519775391 16.235877990722656
   vertex 100 33.948276519775391 16.235877990722656
  endloop
 endfacet
 facet normal 0 0.78531878117528786 0.61909160221518122
  outer loop
   vertex 85 33.948276519775391 16.235877990722656
   vertex 100 34.011470794677734 16.155715942382812
   vertex 85 34.011470794677734 16.155715942382812
  endloop
 endfacet
 facet normal 0 0.039258364965599313 -0.99922909324149867
  outer loop
   vertex 85 34.898002624511719 18.295991897583008
   vertex 100 35 18.299999237060547
   vertex 100 34.898002624511719 18.295991897583008
  endloop
 endfacet
 facet normal 0 0.039258364965599313 -0.99922909324149867
  outer loop
   vertex 100 35 18.299999237060547
   vertex 85 34.898002624511719 18.295991897583008
   vertex 85 35 18.299999237060547
  endloop
 endfacet
 facet normal 0 0.96245893857773834 -0.27142732278054332
  outer loop
   vertex 100 33.735919952392578 17.303478240966797
   vertex 85 33.763626098632812 17.401721954345703
   vertex 100 33.763626098632812 17.401721954345703
  endloop
 endfacet
 facet normal 0 0.96245893857773834 -0.27142732278054332
  outer loop
   vertex 85 33.763626098632812 17.401721954345703
   vertex 100 33.735919952392578 17.303478240966797
   vertex 85 33.735919952392578 17.303478240966797
  endloop
 endfacet
 facet normal 0 -0.61909160221518122 -0.78531878117528786
  outer loop
   vertex 85 35.764122009277344 18.051721572875977
   vertex 100 35.844284057617188 17.988527297973633
   vertex 100 35.764122009277344 18.051721572875977
  endloop
 endfacet
 facet normal 0 -0.61909160221518122 -0.78531878117528786
  outer loop
   vertex 100 35.844284057617188 17.988527297973633
   vertex 85 35.764122009277344 18.051721572875977
   vertex 85 35.844284057617188 17.988527297973633
  endloop
 endfacet
 facet normal -0 0.73431037815734501 0.67881386884065431
  outer loop
   vertex 100 34.080760955810547 16.080760955810547
   vertex 85 34.011470794677734 16.155715942382812
   vertex 100 34.011470794677734 16.155715942382812
  endloop
 endfacet
 facet normal 0 0.73431037815734501 0.67881386884065431
  outer loop
   vertex 85 34.011470794677734 16.155715942382812
   vertex 100 34.080760955810547 16.080760955810547
   vertex 85 34.080760955810547 16.080760955810547
  endloop
 endfacet
 facet normal -0 0.98077996109743826 0.19511706206712867
  outer loop
   vertex 100 33.735919952392578 16.696521759033203
   vertex 85 33.71600341796875 16.796634674072266
   vertex 100 33.71600341796875 16.796634674072266
  endloop
 endfacet
 facet normal 0 0.98077996109743826 0.19511706206712867
  outer loop
   vertex 85 33.71600341796875 16.796634674072266
   vertex 100 33.735919952392578 16.696521759033203
   vertex 85 33.735919952392578 16.696521759033203
  endloop
 endfacet
 facet normal 0 -0.99307334954532023 0.11749605279684217
  outer loop
   vertex 85 36.28399658203125 16.796634674072266
   vertex 100 36.295989990234375 16.898002624511719
   vertex 85 36.295989990234375 16.898002624511719
  endloop
 endfacet
 facet normal 0 -0.99307334954532023 0.11749605279684217
  outer loop
   vertex 100 36.295989990234375 16.898002624511719
   vertex 85 36.28399658203125 16.796634674072266
   vertex 100 36.28399658203125 16.796634674072266
  endloop
 endfacet
 facet normal 0 -0.34612615305730993 -0.93818798018827099
  outer loop
   vertex 85 35.401721954345703 18.236373901367188
   vertex 100 35.497489929199219 18.201042175292969
   vertex 100 35.401721954345703 18.236373901367188
  endloop
 endfacet
 facet normal 0 -0.34612615305730993 -0.93818798018827099
  outer loop
   vertex 100 35.497489929199219 18.201042175292969
   vertex 85 35.401721954345703 18.236373901367188
   vertex 85 35.497489929199219 18.201042175292969
  endloop
 endfacet
 facet normal 0 0.87249518231092427 -0.48862271421233283
  outer loop
   vertex 100 33.841690063476562 17.590187072753906
   vertex 85 33.891567230224609 17.679248809814453
   vertex 100 33.891567230224609 17.679248809814453
  endloop
 endfacet
 facet normal 0 0.87249518231092427 -0.48862271421233283
  outer loop
   vertex 85 33.891567230224609 17.679248809814453
   vertex 100 33.841690063476562 17.590187072753906
   vertex 85 33.841690063476562 17.590187072753906
  endloop
 endfacet
 facet normal 0 -0.11753290814627734 -0.99306898828967505
  outer loop
   vertex 85 35.101997375488281 18.295991897583008
   vertex 100 35.203365325927734 18.283994674682617
   vertex 100 35.101997375488281 18.295991897583008
  endloop
 endfacet
 facet normal 0 -0.11753290814627734 -0.99306898828967505
  outer loop
   vertex 100 35.203365325927734 18.283994674682617
   vertex 85 35.101997375488281 18.295991897583008
   vertex 85 35.203365325927734 18.283994674682617
  endloop
 endfacet
 facet normal 0 -0.039258364965599313 -0.99922909324149867
  outer loop
   vertex 85 35 18.299999237060547
   vertex 100 35.101997375488281 18.295991897583008
   vertex 100 35 18.299999237060547
  endloop
 endfacet
 facet normal 0 -0.039258364965599313 -0.99922909324149867
  outer loop
   vertex 100 35.101997375488281 18.295991897583008
   vertex 85 35 18.299999237060547
   vertex 85 35.101997375488281 18.295991897583008
  endloop
 endfacet
 facet normal 0 0.55557523190504909 -0.83146627213234026
  outer loop
   vertex 85 34.235877990722656 18.051721572875977
   vertex 100 34.320751190185547 18.108432769775391
   vertex 100 34.235877990722656 18.051721572875977
  endloop
 endfacet
 facet normal 0 0.55557523190504909 -0.83146627213234026
  outer loop
   vertex 100 34.320751190185547 18.108432769775391
   vertex 85 34.235877990722656 18.051721572875977
   vertex 85 34.320751190185547 18.108432769775391
  endloop
 endfacet
endsolid
